<svg width="122" height="78" viewBox="0 0 122 78" fill="none" xmlns="http://www.w3.org/2000/svg">
<g clip-path="url(#clip0_1972_19282)">
<path d="M98.322 65.0781C98.322 65.0781 115.864 57.3145 115.456 41.6519C115.048 25.9893 98.4223 18.7061 87.135 28.3764C75.8476 38.0467 68.5437 29.9379 62.6952 21.7649C56.8484 13.5952 43.803 3.28206 26.6892 8.04784C8.75936 13.0386 3.24234 31.1069 5.01901 43.1626C6.29413 51.8229 10.9594 59.1653 17.318 64.8074C17.5254 64.9901 17.7362 65.1728 17.9538 65.3505L98.322 65.0781Z" fill="#D8DFFD"/>
<path d="M18.519 44.401H9.8125V55.5499H18.519V44.401Z" fill="#A9B7F2"/>
<path d="M78.5133 38.627H63.3359V53.7296H78.5133V38.627Z" fill="#A9B7F2"/>
<path d="M38.2378 40.5302H29.5312V51.6791H38.2378V40.5302Z" fill="#A9B7F2"/>
<path d="M54.7104 46.5631H46.0039V57.712H54.7104V46.5631Z" fill="#A9B7F2"/>
<path d="M115.003 50.9838H1.10938V65.6127H115.003V50.9838Z" fill="#A9B7F2"/>
<path d="M9.81589 39.8349H1.10938V50.9838H9.81589V39.8349Z" fill="#A9B7F2"/>
<path d="M47.0876 30.9658C47.8182 27.9327 45.9395 24.8845 42.8914 24.1575C39.8433 23.4305 36.78 25.3 36.0494 28.3331C35.3188 31.3661 37.1975 34.4143 40.2456 35.1413C43.2937 35.8683 46.357 33.9989 47.0876 30.9658Z" fill="#E9EDFD"/>
<path d="M41.5664 28.3679C42.2913 28.3679 42.879 27.7832 42.879 27.0619C42.879 26.3405 42.2913 25.7558 41.5664 25.7558C40.8415 25.7558 40.2539 26.3405 40.2539 27.0619C40.2539 27.7832 40.8415 28.3679 41.5664 28.3679Z" fill="#D8DFFD"/>
<path d="M48.1948 29.1884H34.9336V65.6127H48.1948V29.1884Z" fill="#C9D2FC"/>
<path d="M39.3674 31.7972H36.7305V36.9605H39.3674V31.7972Z" fill="#A9B7F2"/>
<path d="M46.0002 31.7972H43.3633V36.9605H46.0002V31.7972Z" fill="#A9B7F2"/>
<path d="M39.3674 39.6674H36.7305V44.8307H39.3674V39.6674Z" fill="#A9B7F2"/>
<path d="M46.0002 39.6674H43.3633V44.8307H46.0002V39.6674Z" fill="#A9B7F2"/>
<path d="M39.3674 47.5393H36.7305V52.7026H39.3674V47.5393Z" fill="#A9B7F2"/>
<path d="M46.0002 47.5393H43.3633V52.7026H46.0002V47.5393Z" fill="#A9B7F2"/>
<path d="M39.3674 55.4095H36.7305V60.5728H39.3674V55.4095Z" fill="#A9B7F2"/>
<path d="M46.0002 55.4095H43.3633V60.5728H46.0002V55.4095Z" fill="#A9B7F2"/>
<path d="M65.7428 20.7701H51.3203V65.6127H65.7428V20.7701Z" fill="#C9D2FC"/>
<path d="M54.7093 23.9591H52.7422V25.9165H54.7093V23.9591Z" fill="#A9B7F2"/>
<path d="M59.514 23.9591H57.5469V25.9165H59.514V23.9591Z" fill="#A9B7F2"/>
<path d="M64.3226 23.9591H62.3555V25.9165H64.3226V23.9591Z" fill="#A9B7F2"/>
<path d="M54.7093 27.4155H52.7422V29.3729H54.7093V27.4155Z" fill="#A9B7F2"/>
<path d="M59.514 27.4155H57.5469V29.3729H59.514V27.4155Z" fill="#A9B7F2"/>
<path d="M64.3226 27.4155H62.3555V29.3729H64.3226V27.4155Z" fill="#A9B7F2"/>
<path d="M54.7093 30.8718H52.7422V32.8292H54.7093V30.8718Z" fill="#A9B7F2"/>
<path d="M59.514 30.8718H57.5469V32.8292H59.514V30.8718Z" fill="#A9B7F2"/>
<path d="M64.3226 30.8718H62.3555V32.8292H64.3226V30.8718Z" fill="#A9B7F2"/>
<path d="M54.7093 34.3298H52.7422V36.2872H54.7093V34.3298Z" fill="#A9B7F2"/>
<path d="M59.514 34.3298H57.5469V36.2872H59.514V34.3298Z" fill="#A9B7F2"/>
<path d="M64.3226 34.3298H62.3555V36.2872H64.3226V34.3298Z" fill="#A9B7F2"/>
<path d="M54.7093 37.7861H52.7422V39.7435H54.7093V37.7861Z" fill="#A9B7F2"/>
<path d="M59.514 37.7861H57.5469V39.7435H59.514V37.7861Z" fill="#A9B7F2"/>
<path d="M64.3226 37.7861H62.3555V39.7435H64.3226V37.7861Z" fill="#A9B7F2"/>
<path d="M54.7093 41.2425H52.7422V43.1999H54.7093V41.2425Z" fill="#A9B7F2"/>
<path d="M59.514 41.2425H57.5469V43.1999H59.514V41.2425Z" fill="#A9B7F2"/>
<path d="M64.3226 41.2425H62.3555V43.1999H64.3226V41.2425Z" fill="#A9B7F2"/>
<path d="M54.7093 44.6988H52.7422V46.6562H54.7093V44.6988Z" fill="#A9B7F2"/>
<path d="M59.514 44.6988H57.5469V46.6562H59.514V44.6988Z" fill="#A9B7F2"/>
<path d="M64.3226 44.6988H62.3555V46.6562H64.3226V44.6988Z" fill="#A9B7F2"/>
<path d="M54.7093 48.1551H52.7422V50.1125H54.7093V48.1551Z" fill="#A9B7F2"/>
<path d="M59.514 48.1551H57.5469V50.1125H59.514V48.1551Z" fill="#A9B7F2"/>
<path d="M64.3226 48.1551H62.3555V50.1125H64.3226V48.1551Z" fill="#A9B7F2"/>
<path d="M54.7093 51.6131H52.7422V53.5705H54.7093V51.6131Z" fill="#A9B7F2"/>
<path d="M59.514 51.6131H57.5469V53.5705H59.514V51.6131Z" fill="#A9B7F2"/>
<path d="M64.3226 51.6131H62.3555V53.5705H64.3226V51.6131Z" fill="#A9B7F2"/>
<path d="M54.7093 55.0695H52.7422V57.0269H54.7093V55.0695Z" fill="#A9B7F2"/>
<path d="M59.514 55.0695H57.5469V57.0269H59.514V55.0695Z" fill="#A9B7F2"/>
<path d="M64.3226 55.0695H62.3555V57.0269H64.3226V55.0695Z" fill="#A9B7F2"/>
<path d="M54.7093 58.5258H52.7422V60.4832H54.7093V58.5258Z" fill="#A9B7F2"/>
<path d="M59.514 58.5258H57.5469V60.4832H59.514V58.5258Z" fill="#A9B7F2"/>
<path d="M64.3226 58.5258H62.3555V60.4832H64.3226V58.5258Z" fill="#A9B7F2"/>
<path d="M97.3008 65.4824V20.6398H111.723V65.4824" fill="#C9D2FC"/>
<path d="M100.69 36.3464H98.7227V38.3038H100.69V36.3464Z" fill="#A9B7F2"/>
<path d="M105.494 23.8288H103.527V25.7862H105.494V23.8288Z" fill="#A9B7F2"/>
<path d="M110.299 23.8288H108.332V25.7862H110.299V23.8288Z" fill="#A9B7F2"/>
<path d="M100.69 39.8028H98.7227V41.7602H100.69V39.8028Z" fill="#A9B7F2"/>
<path d="M105.494 27.2852H103.527V29.2426H105.494V27.2852Z" fill="#A9B7F2"/>
<path d="M110.299 27.2852H108.332V29.2426H110.299V27.2852Z" fill="#A9B7F2"/>
<path d="M100.69 43.2608H98.7227V45.2182H100.69V43.2608Z" fill="#A9B7F2"/>
<path d="M105.494 30.7432H103.527V32.7006H105.494V30.7432Z" fill="#A9B7F2"/>
<path d="M105.494 34.3434H103.527V36.3008H105.494V34.3434Z" fill="#A9B7F2"/>
<path d="M105.494 37.9435H103.527V39.9009H105.494V37.9435Z" fill="#A9B7F2"/>
<path d="M105.494 41.5437H103.527V43.5011H105.494V41.5437Z" fill="#A9B7F2"/>
<path d="M105.494 45.1439H103.527V47.1013H105.494V45.1439Z" fill="#A9B7F2"/>
<path d="M110.299 30.7432H108.332V32.7006H110.299V30.7432Z" fill="#A9B7F2"/>
<path d="M110.299 34.3434H108.332V36.3008H110.299V34.3434Z" fill="#A9B7F2"/>
<path d="M110.299 37.9435H108.332V39.9009H110.299V37.9435Z" fill="#A9B7F2"/>
<path d="M110.299 41.5437H108.332V43.5011H110.299V41.5437Z" fill="#A9B7F2"/>
<path d="M110.299 45.1439H108.332V47.1013H110.299V45.1439Z" fill="#A9B7F2"/>
<path d="M100.69 46.7171H98.7227V48.6745H100.69V46.7171Z" fill="#A9B7F2"/>
<path d="M105.494 46.7171H103.527V48.6745H105.494V46.7171Z" fill="#A9B7F2"/>
<path d="M110.299 46.7171H108.332V48.6745H110.299V46.7171Z" fill="#A9B7F2"/>
<path d="M100.69 50.1734H98.7227V52.1308H100.69V50.1734Z" fill="#A9B7F2"/>
<path d="M105.494 50.1734H103.527V52.1308H105.494V50.1734Z" fill="#A9B7F2"/>
<path d="M110.299 50.1734H108.332V52.1308H110.299V50.1734Z" fill="#A9B7F2"/>
<path d="M100.69 53.6298H98.7227V55.5872H100.69V53.6298Z" fill="#A9B7F2"/>
<path d="M105.494 53.6298H103.527V55.5872H105.494V53.6298Z" fill="#A9B7F2"/>
<path d="M110.299 53.6298H108.332V55.5872H110.299V53.6298Z" fill="#A9B7F2"/>
<path d="M100.69 57.0861H98.7227V59.0435H100.69V57.0861Z" fill="#A9B7F2"/>
<path d="M105.494 57.0861H103.527V59.0435H105.494V57.0861Z" fill="#A9B7F2"/>
<path d="M110.299 57.0861H108.332V59.0435H110.299V57.0861Z" fill="#A9B7F2"/>
<path d="M100.69 60.5441H98.7227V62.5015H100.69V60.5441Z" fill="#A9B7F2"/>
<path d="M105.494 60.5441H103.527V62.5015H105.494V60.5441Z" fill="#A9B7F2"/>
<path d="M110.299 48.0265H108.332V49.9839H110.299V48.0265Z" fill="#A9B7F2"/>
<path d="M100.69 51.4828H98.7227V53.4403H100.69V51.4828Z" fill="#A9B7F2"/>
<path d="M105.494 51.4828H103.527V53.4403H105.494V51.4828Z" fill="#A9B7F2"/>
<path d="M110.299 51.4828H108.332V53.4403H110.299V51.4828Z" fill="#A9B7F2"/>
<path d="M100.69 54.9392H98.7227V56.8966H100.69V54.9392Z" fill="#A9B7F2"/>
<path d="M105.494 54.9392H103.527V56.8966H105.494V54.9392Z" fill="#A9B7F2"/>
<path d="M110.299 54.9392H108.332V56.8966H110.299V54.9392Z" fill="#A9B7F2"/>
<path d="M98.7227 60.3529V58.3955H100.69V60.3529" fill="#A9B7F2"/>
<path d="M103.527 60.3529V58.3955H105.494V60.3529" fill="#A9B7F2"/>
<path d="M108.336 60.3529V58.3955H110.303V60.3529" fill="#A9B7F2"/>
<path d="M31.7795 20.7701H13.9414V65.6127H31.7795V20.7701Z" fill="#C9D2FC"/>
<path d="M17.0162 27.9788H15.8125V51.1733H17.0162V27.9788Z" fill="#A9B7F2"/>
<path d="M20.2389 27.9788H19.0352V51.1733H20.2389V27.9788Z" fill="#A9B7F2"/>
<path d="M23.4615 27.9788H22.2578V51.1733H23.4615V27.9788Z" fill="#A9B7F2"/>
<path d="M26.6842 27.9788H25.4805V51.1733H26.6842V27.9788Z" fill="#A9B7F2"/>
<path d="M29.9068 27.9788H28.7031V51.1733H29.9068V27.9788Z" fill="#A9B7F2"/>
<path d="M31.7795 23.2503H13.9414V25.7304H31.7795V23.2503Z" fill="#E9EDFD"/>
<path d="M1.93875 27.1837C1.93875 27.6929 1.52901 28.1057 1.02406 28.1057C0.519113 28.1057 0.109375 27.6929 0.109375 27.1837C0.109375 26.6745 0.519113 26.2617 1.02406 26.2617C1.52901 26.26 1.93875 26.6728 1.93875 27.1837Z" stroke="#A9B7F2" stroke-width="1.2772" stroke-miterlimit="10"/>
<path d="M110.536 7.36944C110.536 7.87867 110.127 8.29147 109.622 8.29147C109.117 8.29147 108.707 7.87867 108.707 7.36944C108.707 6.86022 109.117 6.44742 109.622 6.44742C110.127 6.44742 110.536 6.86022 110.536 7.36944Z" stroke="#A9B7F2" stroke-width="1.2772" stroke-miterlimit="10"/>
<path d="M67.5341 17.0042C67.5341 17.532 67.1091 17.9601 66.5854 17.9601C66.0618 17.9601 65.6367 17.532 65.6367 17.0042C65.6367 16.4764 66.0618 16.0483 66.5854 16.0483C67.1091 16.0483 67.5341 16.4764 67.5341 17.0042Z" stroke="#A9B7F2" stroke-width="1.2772" stroke-miterlimit="10"/>
<path d="M13.1367 4.3699H19.7911" stroke="#A9B7F2" stroke-width="0.9985" stroke-miterlimit="10"/>
<path d="M111.527 24.7661H117.303" stroke="#A9B7F2" stroke-width="0.9985" stroke-miterlimit="10"/>
<path d="M63.0781 0.0845947H73.1363" stroke="#A9B7F2" stroke-width="0.9985" stroke-miterlimit="10"/>
<path d="M80.4442 65.2575H99.503C101.936 65.2575 103.908 63.295 103.908 60.874V10.3995C103.908 7.9785 101.936 6.01602 99.503 6.01602H80.4442C78.0112 6.01602 76.0391 7.9785 76.0391 10.3995V60.874C76.0391 63.295 78.0112 65.2575 80.4442 65.2575Z" fill="#1F275F"/>
<path d="M77.5535 65.2575H96.6123C99.0453 65.2575 101.017 63.295 101.017 60.874V10.3995C101.017 7.9785 99.0453 6.01602 96.6123 6.01602H77.5535C75.1206 6.01602 73.1484 7.9785 73.1484 10.3995V60.874C73.1484 63.295 75.1206 65.2575 77.5535 65.2575Z" fill="#537EEF"/>
<path d="M77.5292 63.9294H96.6407C98.3153 63.9294 99.6737 62.5777 99.6737 60.9112V10.6397C99.6737 8.97326 98.3153 7.62152 96.6407 7.62152H77.5292C75.8545 7.62152 74.4961 8.97326 74.4961 10.6397V60.9112C74.4961 62.5793 75.8528 63.9294 77.5292 63.9294Z" fill="white"/>
<path d="M82.4093 9.10353H91.546C91.9982 9.10353 92.3654 8.73811 92.3654 8.28809V6.95834H81.5898V8.28978C81.5898 8.7398 81.9571 9.10353 82.4093 9.10353Z" fill="#537EEF"/>
<path d="M84.5039 7.73825H88.7288" stroke="#312220" stroke-width="0.8684" stroke-miterlimit="10" stroke-linecap="round" stroke-linejoin="round"/>
<path d="M98.3115 17.691H75.8711V34.4144H98.3115V17.691Z" fill="#D8DFFD"/>
<mask id="mask0_1972_19282" style="mask-type:luminance" maskUnits="userSpaceOnUse" x="75" y="17" width="24" height="18">
<path d="M98.3115 17.691H75.8711V34.4144H98.3115V17.691Z" fill="white"/>
</mask>
<g mask="url(#mask0_1972_19282)">
<path d="M99.7264 18.9768L71.8438 39.9246" stroke="white" stroke-width="5.126" stroke-miterlimit="10"/>
<path d="M106.357 22.4365L78.4766 43.3826" stroke="white" stroke-width="5.126" stroke-miterlimit="10"/>
<path d="M92.9597 15.622L68.3125 34.1386" stroke="white" stroke-width="5.126" stroke-miterlimit="10"/>
<path d="M77.4609 16.0855L87.7911 31.1983C88.1413 31.7109 88.0495 32.4029 87.5786 32.8072L84.2633 35.6545C82.7518 36.9538 82.5427 38.3681 83.7906 39.9195L89.1427 47.4158" stroke="white" stroke-width="5.126" stroke-miterlimit="10"/>
</g>
<path d="M94.6714 16.0382C94.6714 13.9099 92.4136 12.3061 90.1507 13.4683C89.7988 13.6494 89.3516 14.0858 89.1612 14.431C88.5696 15.4968 88.6223 16.5491 89.0473 17.3781H89.0439L89.0677 17.4221C89.0779 17.4424 89.0898 17.4627 89.1017 17.483L91.6961 22.1523L94.2957 17.4762C94.3042 17.461 94.3127 17.4441 94.3212 17.4288L94.3331 17.4068H94.3314C94.549 16.9974 94.6714 16.5322 94.6714 16.0382Z" fill="#EAA947"/>
<path d="M92.2022 17.2173C92.8739 16.9388 93.1917 16.1713 92.9119 15.5028C92.6321 14.8344 91.8607 14.5182 91.189 14.7966C90.5172 15.0751 90.1995 15.8427 90.4793 16.5111C90.7591 17.1795 91.5305 17.4957 92.2022 17.2173Z" fill="white"/>
<path d="M64.7444 51.1716H61.6637C58.6391 51.1716 56.1875 54.3285 56.1875 58.223C56.1875 62.1175 58.6391 65.2744 61.6637 65.2744H64.7444C67.769 65.2744 70.2206 62.1175 70.2206 58.223C70.2206 54.3285 67.769 51.1716 64.7444 51.1716Z" fill="black"/>
<path d="M103.162 51.1716H100.082C97.0571 51.1716 94.6055 54.3285 94.6055 58.223C94.6055 62.1175 97.0571 65.2744 100.082 65.2744H103.162C106.187 65.2744 108.639 62.1175 108.639 58.223C108.639 54.3285 106.187 51.1716 103.162 51.1716Z" fill="black"/>
<path d="M88.5293 49.4629H65.8203V59.5696H88.5293V49.4629Z" fill="black"/>
<path d="M78.2315 65.2574C81.1855 65.2574 83.5802 62.1731 83.5802 58.3685C83.5802 54.5638 81.1855 51.4795 78.2315 51.4795C75.2775 51.4795 72.8828 54.5638 72.8828 58.3685C72.8828 62.1731 75.2775 65.2574 78.2315 65.2574Z" fill="black"/>
<path d="M75.2227 65.2574H78.2319L81.3092 62.197L78.2319 51.4812H75.2227V65.2574Z" fill="black"/>
<path d="M75.2237 65.2574C78.1777 65.2574 80.5724 62.1731 80.5724 58.3685C80.5724 54.5638 78.1777 51.4795 75.2237 51.4795C72.2697 51.4795 69.875 54.5638 69.875 58.3685C69.875 62.1731 72.2697 65.2574 75.2237 65.2574Z" fill="#253A6A"/>
<path d="M74.856 61.7097C76.2823 61.7097 77.4385 60.1494 77.4385 58.2247C77.4385 56.2999 76.2823 54.7396 74.856 54.7396C73.4297 54.7396 72.2734 56.2999 72.2734 58.2247C72.2734 60.1494 73.4297 61.7097 74.856 61.7097Z" fill="#B8B8C2"/>
<mask id="mask1_1972_19282" style="mask-type:luminance" maskUnits="userSpaceOnUse" x="72" y="54" width="6" height="8">
<path d="M74.856 61.7097C76.2823 61.7097 77.4385 60.1494 77.4385 58.2247C77.4385 56.2999 76.2823 54.7396 74.856 54.7396C73.4297 54.7396 72.2734 56.2999 72.2734 58.2247C72.2734 60.1494 73.4297 61.7097 74.856 61.7097Z" fill="white"/>
</mask>
<g mask="url(#mask1_1972_19282)">
<path d="M76.0591 61.7097C77.4854 61.7097 78.6416 60.1494 78.6416 58.2247C78.6416 56.2999 77.4854 54.7396 76.0591 54.7396C74.6328 54.7396 73.4766 56.2999 73.4766 58.2247C73.4766 60.1494 74.6328 61.7097 76.0591 61.7097Z" fill="white"/>
</g>
<path d="M50.1114 49.4629H27.4023V59.5696H50.1114V49.4629Z" fill="black"/>
<path d="M39.8135 65.2574C42.7675 65.2574 45.1622 62.1731 45.1622 58.3685C45.1622 54.5638 42.7675 51.4795 39.8135 51.4795C36.8595 51.4795 34.4648 54.5638 34.4648 58.3685C34.4648 62.1731 36.8595 65.2574 39.8135 65.2574Z" fill="black"/>
<path d="M36.8047 65.2574H39.814L42.8896 62.197L39.814 51.4812H36.8047V65.2574Z" fill="black"/>
<path d="M36.8057 65.2574C39.7597 65.2574 42.1544 62.1731 42.1544 58.3685C42.1544 54.5638 39.7597 51.4795 36.8057 51.4795C33.8517 51.4795 31.457 54.5638 31.457 58.3685C31.457 62.1731 33.8517 65.2574 36.8057 65.2574Z" fill="#253A6A"/>
<path d="M36.438 61.7097C37.8643 61.7097 39.0205 60.1494 39.0205 58.2247C39.0205 56.2999 37.8643 54.7396 36.438 54.7396C35.0117 54.7396 33.8555 56.2999 33.8555 58.2247C33.8555 60.1494 35.0117 61.7097 36.438 61.7097Z" fill="#B8B8C2"/>
<mask id="mask2_1972_19282" style="mask-type:luminance" maskUnits="userSpaceOnUse" x="33" y="54" width="7" height="8">
<path d="M36.438 61.7097C37.8643 61.7097 39.0205 60.1494 39.0205 58.2247C39.0205 56.2999 37.8643 54.7396 36.438 54.7396C35.0117 54.7396 33.8555 56.2999 33.8555 58.2247C33.8555 60.1494 35.0117 61.7097 36.438 61.7097Z" fill="white"/>
</mask>
<g mask="url(#mask2_1972_19282)">
<path d="M37.6411 61.7097C39.0674 61.7097 40.2237 60.1494 40.2237 58.2247C40.2237 56.2999 39.0674 54.7396 37.6411 54.7396C36.2148 54.7396 35.0586 56.2999 35.0586 58.2247C35.0586 60.1494 36.2148 61.7097 37.6411 61.7097Z" fill="white"/>
</g>
<path d="M122.001 51.6538L91.0613 36.7372L85.478 43.5856L68.5938 42.1121" fill="#F0C98C"/>
<path d="M68.5938 42.1121L86.7735 51.6944L122.001 51.6538" fill="#F0C98C"/>
<path d="M23.793 59.5696V47.6019C23.793 45.8949 25.0511 44.44 26.7495 44.2065C28.2406 44.0001 30.1499 43.8208 32.1254 43.8563C32.1254 43.8563 43.5437 36.8726 47.7295 36.8726L73.9596 36.7389C77.4704 36.6916 80.9421 37.4782 84.0857 39.0347L95.7675 44.8189L111.298 48.2025C111.298 48.2025 114.515 49.0704 115.205 51.1513C115.894 53.2322 115.664 55.5195 115.664 55.5195H81.5542C81.5542 55.5195 80.0172 50.7097 75.097 50.7097C70.1784 50.7097 68.8455 56.6124 69.1532 59.5696H43.3805C43.3805 59.5696 43.4825 50.7994 36.8213 51.1056C30.1601 51.4118 30.6718 59.5696 30.6718 59.5696H23.793Z" fill="#EAA947"/>
<path d="M24.0484 55.5212C23.149 55.5212 22.4214 56.2453 22.4197 57.1402L22.418 57.9523C22.418 58.8472 23.1473 59.5713 24.045 59.5713H30.6739C30.6739 59.5713 30.6399 57.3635 31.2282 55.5212H24.0484Z" fill="#CF8127"/>
<path d="M63.925 33.4416H53.7462C52.8978 33.4416 52.2109 34.1251 52.2109 34.9693V36.8743H65.4603V34.9693C65.4603 34.1251 64.7734 33.4416 63.925 33.4416Z" fill="black"/>
<path d="M65.9055 33.4416H55.7266C54.8783 33.4416 54.1914 34.1251 54.1914 34.9693V36.8743H67.4407V34.9693C67.4407 34.1251 66.7539 33.4416 65.9055 33.4416Z" fill="#CF8127"/>
<path d="M57.8339 34.5074H57.2031V34.2097H58.8183V34.5074H58.1875V36.1045H57.8339V34.5074Z" fill="black"/>
<path d="M60.4287 35.6663H59.4766L59.2896 36.1045H58.9258L59.7827 34.2097H60.1312L60.9915 36.1045H60.6208L60.4287 35.6663ZM60.3114 35.3906L59.9527 34.5633L59.5956 35.3906H60.3114Z" fill="black"/>
<path d="M62.5409 36.1045L62.0241 35.3838L61.5123 36.1045H61.1094L61.8166 35.1385L61.1468 34.2097H61.5463L62.0326 34.883L62.5137 34.2097H62.8979L62.2315 35.1249L62.9472 36.1045H62.5409Z" fill="black"/>
<path d="M63.3711 34.2097H63.7247V36.1045H63.3711V34.2097Z" fill="black"/>
<path d="M69.0552 44.3403L58.6894 38.5391C57.8087 38.0468 56.8158 37.788 55.8059 37.788H49.6343C48.0379 37.788 46.472 38.2363 45.1204 39.0839L35.2731 44.6448C34.9926 44.8038 35.1048 45.2302 35.4278 45.2302H68.8206C69.312 45.2285 69.482 44.5788 69.0552 44.3403Z" fill="black"/>
<mask id="mask3_1972_19282" style="mask-type:luminance" maskUnits="userSpaceOnUse" x="35" y="37" width="35" height="9">
<path d="M69.0552 44.3403L58.6894 38.5391C57.8087 38.0468 56.8158 37.788 55.8059 37.788H49.6343C48.0379 37.788 46.472 38.2363 45.1204 39.0839L35.2731 44.6448C34.9926 44.8038 35.1048 45.2302 35.4278 45.2302H68.8206C69.312 45.2285 69.482 44.5788 69.0552 44.3403Z" fill="white"/>
</mask>
<g mask="url(#mask3_1972_19282)">
<path d="M35.4453 37.441L56.7194 49.4629H65.2814L44.0141 37.441H35.4453Z" fill="#5E5E5E"/>
</g>
<path d="M35.207 44.8832V49.045C35.207 49.045 44.2502 47.2331 45.1666 57.5463H65.8218C65.8218 57.5463 65.2692 47.4649 69.0827 45.0067" stroke="black" stroke-width="0.786" stroke-miterlimit="10" stroke-linecap="round" stroke-linejoin="round"/>
<path d="M52.0637 45.2283C52.0637 45.2283 49.9096 46.1791 50.9535 57.5463" stroke="black" stroke-width="0.786" stroke-miterlimit="10" stroke-linecap="round" stroke-linejoin="round"/>
<path d="M55.3858 47.2433H53.3099C53.0821 47.2433 52.8984 47.0605 52.8984 46.8338V46.6444C52.8984 46.4177 53.0821 46.235 53.3099 46.235H55.3858C55.6136 46.235 55.7972 46.4177 55.7972 46.6444V46.8338C55.7972 47.0589 55.6136 47.2433 55.3858 47.2433Z" fill="black"/>
<path d="M39.7959 47.2433H37.72C37.4922 47.2433 37.3086 47.0605 37.3086 46.8338V46.6444C37.3086 46.4177 37.4922 46.235 37.72 46.235H39.7959C40.0237 46.235 40.2074 46.4177 40.2074 46.6444V46.8338C40.2074 47.0589 40.022 47.2433 39.7959 47.2433Z" fill="black"/>
<path d="M62.6304 38.9602L74.4941 45.2283H94.6631L81.0941 38.6253C79.9584 38.072 78.7105 37.7861 77.4472 37.7861H62.9245C62.2716 37.7861 62.054 38.6557 62.6304 38.9602Z" fill="black"/>
<path d="M77.4414 46.2349H96.1108" stroke="black" stroke-width="0.786" stroke-miterlimit="10" stroke-linecap="round" stroke-linejoin="round"/>
<path d="M66.4727 37.7861L79.6421 45.2283H84.037L70.8727 37.7861H66.4727Z" fill="#5E5E5E"/>
<path d="M74.6758 37.7861L87.8469 45.2283H89.2751L76.109 37.7861H74.6758Z" fill="#5E5E5E"/>
<path d="M113.665 59.5696H83.1778C82.2784 59.5696 81.5508 58.8439 81.5508 57.9506L81.5542 55.5212H115.666L115.639 57.6072C115.639 58.6916 114.755 59.5696 113.665 59.5696Z" fill="#CF8127"/>
<path d="M105.753 55.0187H100.219V56.6851H105.753V55.0187Z" fill="white"/>
<path d="M93.6523 51.696H109.965" stroke="black" stroke-width="0.786" stroke-miterlimit="10" stroke-linecap="round" stroke-linejoin="round"/>
<path d="M96.6289 52.9361H107.35" stroke="black" stroke-width="0.786" stroke-miterlimit="10" stroke-linecap="round" stroke-linejoin="round"/>
<path d="M96.6289 54.1694H107.35" stroke="black" stroke-width="0.786" stroke-miterlimit="10" stroke-linecap="round" stroke-linejoin="round"/>
<path d="M94.3351 54.3572H87.2148C86.6129 54.3572 86.125 53.8717 86.125 53.2728V52.256C86.125 51.6571 86.6129 51.1716 87.2148 51.1716H94.3351C94.9369 51.1716 95.4249 51.6571 95.4249 52.256V53.2728C95.4232 53.8717 94.9352 54.3572 94.3351 54.3572Z" fill="white"/>
<path d="M115.216 51.1716H109.816C109.215 51.1716 108.727 51.6571 108.727 52.256V53.2728C108.727 53.8717 109.215 54.3572 109.816 54.3572H115.702C115.748 52.2188 115.287 51.3019 115.216 51.1716Z" fill="white"/>
<path d="M86.125 53.2728H95.4232" stroke="black" stroke-width="0.786" stroke-miterlimit="10" stroke-linecap="round" stroke-linejoin="round"/>
<path d="M108.727 53.2728H115.665" stroke="black" stroke-width="0.786" stroke-miterlimit="10" stroke-linecap="round" stroke-linejoin="round"/>
<path d="M51.234 7.40159C51.234 4.24809 47.8881 1.87112 44.5354 3.59506C44.0151 3.86236 43.3521 4.51032 43.0681 5.02124C42.1909 6.60137 42.2691 8.15782 42.8998 9.38944H42.8947L42.9304 9.45373C42.9474 9.48418 42.9627 9.51294 42.9797 9.54339L46.8238 16.4611L50.6747 9.53155C50.6883 9.50787 50.7002 9.48587 50.7138 9.46219L50.7308 9.43004H50.7291C51.0521 8.82269 51.234 8.13413 51.234 7.40159Z" fill="#EAA947"/>
<path d="M46.8285 9.29978C47.9074 9.29978 48.782 8.42948 48.782 7.35592C48.782 6.28235 47.9074 5.41205 46.8285 5.41205C45.7496 5.41205 44.875 6.28235 44.875 7.35592C44.875 8.42948 45.7496 9.29978 46.8285 9.29978Z" fill="white"/>
<path d="M30.7095 61.84H33.4603L38.0065 64.2593L30.1875 64.1679L30.7095 61.84Z" fill="#101010"/>
<path d="M30.1602 65.1915L30.1874 64.1679L38.0064 64.2593L37.9792 65.2845L30.1602 65.1915Z" fill="white"/>
<path d="M35.3603 62.7316L34.4609 62.9752" stroke="white" stroke-width="1.4566" stroke-miterlimit="10" stroke-linecap="round" stroke-linejoin="round"/>
<path d="M34.4775 62.2816L33.5781 62.5269" stroke="white" stroke-width="1.4566" stroke-miterlimit="10" stroke-linecap="round" stroke-linejoin="round"/>
<path d="M33.7525 57.9828H30.949L30.7109 61.84H33.5145L33.7525 57.9828Z" fill="#EBB28B"/>
<path d="M35.5824 32.6364L33.855 60.6H29.9531L30.6264 32.6364H35.5824Z" fill="#98BDFC"/>
<path d="M24.3874 61.84H27.1383L31.6845 64.2593L23.8672 64.1679L24.3874 61.84Z" fill="#101010"/>
<path d="M23.8398 65.1915L23.867 64.1679L31.6844 64.2593L31.6572 65.2845L23.8398 65.1915Z" fill="white"/>
<path d="M29.0378 62.7316L28.1367 62.9752" stroke="white" stroke-width="1.4566" stroke-miterlimit="10" stroke-linecap="round" stroke-linejoin="round"/>
<path d="M28.1589 62.2816L27.2578 62.5269" stroke="white" stroke-width="1.4566" stroke-miterlimit="10" stroke-linecap="round" stroke-linejoin="round"/>
<path d="M27.7071 57.9828H24.9036L24.3867 61.84H27.1903L27.7071 57.9828Z" fill="#EBB28B"/>
<path d="M27.3203 32.6364L23.5 60.6H27.7657L33.3184 32.6364H27.3203Z" fill="#98BDFC"/>
<path d="M30.2578 48.0604L32.4374 37.0807L34.0305 36.0487" stroke="#171717" stroke-width="0.6376" stroke-miterlimit="10" stroke-linecap="round" stroke-linejoin="round"/>
<path d="M26.7617 36.7356L29.1436 34.8695" stroke="#171717" stroke-width="0.6376" stroke-miterlimit="10" stroke-linecap="round" stroke-linejoin="round"/>
<path d="M36.317 22.0085L40.6592 27.6811C41.1386 28.2157 41.1692 29.0142 40.7306 29.581C40.1764 30.2966 39.1155 30.3609 38.4796 29.718L33.8144 24.3482C33.1751 23.702 33.153 22.67 33.7668 21.9984C34.4502 21.2489 35.6386 21.2523 36.317 22.0085Z" fill="#EBB28B"/>
<path d="M34.1914 19.8565C34.1914 19.8565 36.3132 20.1205 37.9386 23.2537L35.4427 26.2312L34.1914 19.8565Z" fill="#537EEF"/>
<path d="M37.6836 27.9145L43.6359 24.1994L44.8192 25.4175L40.5059 29.8161L37.6836 27.9145Z" fill="#EBB28B"/>
<path d="M44.5877 21.8782L47.5392 22.7343C47.5392 22.7343 47.5392 25.0097 44.8172 25.4208C44.6676 25.4428 43.9978 25.1874 43.8839 25.0859L43.4316 23.8018C43.2718 23.5903 43.2854 23.296 43.4639 23.1014L44.5877 21.8782Z" fill="#EBB28B"/>
<path d="M44.3438 22.2572L45.3876 20.8936C45.5424 20.7041 45.8076 20.6635 45.9844 20.8039C46.1527 20.9393 46.1799 21.1931 46.0473 21.3876L45.0833 22.8832L44.3438 22.2572Z" fill="#E9B0A0"/>
<path d="M45.6055 23.345L46.8602 22.1134C47.0336 21.9408 47.2903 21.9222 47.4382 22.0745C47.5794 22.22 47.5709 22.4704 47.4178 22.648L46.2209 24.015L45.6055 23.345Z" fill="#E9B0A0"/>
<path d="M45.125 22.5042L46.31 21.3385C46.4851 21.1677 46.7504 21.1592 46.9068 21.3216C47.0564 21.4773 47.053 21.7361 46.9 21.9138L45.7779 23.2215L45.125 22.5042Z" fill="#E9B0A0"/>
<path d="M47.1173 18.9278L47.5865 18.9582V22.0271L45.939 24.5953L45.4375 24.5547L46.3216 21.3284L47.1173 18.9278Z" fill="#36438D"/>
<path d="M44.3532 23.1877L45.732 24.4802C45.8578 24.6359 46.0975 24.6342 46.2199 24.4751L49.2207 20.7481C49.2938 20.6534 49.2921 20.5214 49.2173 20.4284L47.7722 19.053C47.6668 18.9227 47.4679 18.9244 47.3659 19.0563L44.3498 22.802C44.2631 22.917 44.2631 23.076 44.3532 23.1877Z" fill="#050907"/>
<path d="M43.8968 23.1572L45.2756 24.4498C45.4014 24.6054 45.6411 24.6037 45.7636 24.4447L48.7643 20.7177C48.8374 20.6229 48.8357 20.491 48.7609 20.3979L47.3158 19.0225C47.2104 18.8922 47.0115 18.8939 46.9095 19.0259L43.8934 22.7715C43.805 22.8865 43.8067 23.0456 43.8968 23.1572Z" fill="white"/>
<path d="M43.7475 24.2214C43.586 24.1418 43.1831 23.724 43.2545 23.0895C43.348 22.2538 43.7815 21.6228 43.7815 21.6228C43.9261 21.3538 44.0927 21.2235 44.3273 21.2556C44.5806 21.2912 44.7438 21.5602 44.6979 21.7463L44.4344 22.3299C44.4344 22.3299 44.7251 23.0692 44.1165 24.1892L43.7475 24.2214Z" fill="#EBB28B"/>
<path d="M30.2007 19.256C30.2007 19.256 28.5957 19.6298 27.4515 20.2034C26.7307 20.5654 26.6508 21.347 26.7409 22.1438L27.3223 32.6363H35.5851L36.1631 22.4991C36.2431 21.3876 35.5868 20.2981 34.5259 19.9394C33.3375 19.5368 32.5877 19.1545 31.9552 19.1189L30.2007 19.256Z" fill="#537EEF"/>
<path d="M35.9883 25.5832L36.1634 22.4991" stroke="#171717" stroke-width="0.6376" stroke-miterlimit="10" stroke-linecap="round" stroke-linejoin="round"/>
<path d="M30.2021 19.256L29.25 19.5165C29.25 19.5165 29.9573 20.8733 32.5279 20.6432C34.3301 20.4825 33.6041 19.6045 33.6041 19.6045L32.7081 19.2813L30.2021 19.256Z" fill="#EBB28B"/>
<path d="M22.3899 25.2787L26.6573 31.5299L25.508 32.7818L20.7969 28.1886L22.3899 25.2787Z" fill="#EBB28B"/>
<path d="M30.5777 31.8141L28.7517 30.8904L28.9302 30.4911C28.9948 30.3456 28.9557 30.1748 28.8316 30.075C28.7041 29.9701 28.5205 29.9684 28.3913 30.0682L26.5942 31.4724L25.5078 32.7801C26.4939 33.621 27.1383 33.6091 27.5089 33.4467C27.5514 33.4602 27.5956 33.4772 27.6398 33.489L29.1564 33.9221C29.2975 33.983 29.459 33.9238 29.5287 33.7884C29.578 33.6903 29.5967 33.5313 29.3043 33.3841L29.5967 33.5313C29.7446 33.5956 29.918 33.5313 29.986 33.3858C30.0506 33.2572 29.9707 33.088 29.799 32.9764L30.0217 33.0644C30.1832 33.1337 30.3737 33.0542 30.4349 32.8833C30.4876 32.7361 30.4094 32.572 30.2683 32.501L29.9452 32.3386L30.3278 32.4316C30.5046 32.4942 30.7001 32.3995 30.7579 32.2168C30.8106 32.0594 30.7256 31.8903 30.5777 31.8141Z" fill="#EBB28B"/>
<path d="M30.0444 32.386L28.9648 31.8801" stroke="#171717" stroke-width="0.4141" stroke-miterlimit="10" stroke-linecap="round" stroke-linejoin="round"/>
<path d="M29.7514 32.9595L28.7109 32.5281" stroke="#171717" stroke-width="0.4141" stroke-miterlimit="10" stroke-linecap="round" stroke-linejoin="round"/>
<path d="M29.4019 33.423L28.5195 33.0779" stroke="#171717" stroke-width="0.4141" stroke-miterlimit="10" stroke-linecap="round" stroke-linejoin="round"/>
<path d="M28.3757 23.5565L22.9505 28.214C22.4439 28.7232 21.6448 28.801 21.0481 28.4001C20.2966 27.8942 20.1674 26.8436 20.7743 26.172L25.8765 21.2117C26.4869 20.5366 27.5189 20.4538 28.2312 21.0222C29.0252 21.6549 29.0932 22.8358 28.3757 23.5565Z" fill="#EBB28B"/>
<path d="M28.6197 19.7195C28.6197 19.7195 25.7873 20.271 23.4648 23.2012L25.9267 26.3953L29.4562 23.8796L28.6197 19.7195Z" fill="#537EEF"/>
<path d="M27.125 25.541L29.172 24.0826" stroke="#171717" stroke-width="0.6376" stroke-miterlimit="10" stroke-linecap="round" stroke-linejoin="round"/>
<path d="M34.5868 10.4468C34.5868 10.4468 35.5423 11.2961 34.75 13.2061L33.4375 10.6295L34.5868 10.4468Z" fill="#1F275F"/>
<path d="M29.231 10.6769C29.231 10.6769 28.114 10.5568 27.8607 12.2689C27.6074 13.981 28.8723 15.0062 30.2766 15.8352L29.231 10.6769Z" fill="#1F275F"/>
<path d="M31.5586 16.1295C33.3276 16.1295 34.7617 14.6692 34.7617 12.8678C34.7617 11.0663 33.3276 9.60599 31.5586 9.60599C29.7895 9.60599 28.3555 11.0663 28.3555 12.8678C28.3555 14.6692 29.7895 16.1295 31.5586 16.1295Z" fill="#1F275F"/>
<path d="M35.1257 14.373C35.3249 13.9728 35.1604 13.4876 34.7582 13.2894C34.356 13.0912 33.8684 13.255 33.6693 13.6552C33.4701 14.0554 33.6346 14.5405 34.0368 14.7387C34.439 14.937 34.9265 14.7732 35.1257 14.373Z" fill="#DD8161"/>
<path d="M32.7182 16.1498L32.7659 19.6671L30.1289 19.234L30.3193 14.1873L32.7182 16.1498Z" fill="#EBB28B"/>
<path d="M32.7438 17.9313L30.8906 16.1295L32.8016 16.4628L32.7438 17.9313Z" fill="#171717"/>
<path d="M34.3812 11.3012C34.3812 11.3012 35.0953 14.1349 34.7722 15.2227C34.4509 16.3105 33.6008 17.016 32.1829 16.7842C32.1829 16.7842 30.5473 16.7538 30.0645 14.3531C29.3368 10.7412 32.6215 9.41988 34.3812 11.3012Z" fill="#EBB28B"/>
<path d="M30.5205 14.3532C30.5205 14.3532 31.5678 11.961 30.4304 11.494C30.0887 11.3536 29.8898 11.2826 29.7283 12.482C29.5667 13.6815 29.9884 13.8778 29.9884 13.8778L30.5205 14.3532Z" fill="#1F275F"/>
<path d="M29.0753 14.6272C29.2232 15.0654 29.6993 15.3006 30.1396 15.1534C30.58 15.0062 30.8163 14.5325 30.6684 14.0943C30.5205 13.6561 30.0444 13.421 29.6041 13.5682C29.1637 13.7153 28.9274 14.189 29.0753 14.6272Z" fill="#EBB28B"/>
<path d="M29.4844 14.1281C29.4844 14.1281 30.0947 13.9336 30.2784 14.6035" stroke="#171717" stroke-width="0.3944" stroke-miterlimit="10" stroke-linecap="round" stroke-linejoin="round"/>
<path d="M33.7954 14.0351L33.9774 14.6475C33.9859 14.6932 33.957 14.7372 33.9128 14.749L33.707 14.7829" stroke="#1E0B07" stroke-width="0.3728" stroke-miterlimit="10" stroke-linecap="round" stroke-linejoin="round"/>
<path d="M32.5121 13.8439C32.5053 13.9556 32.5903 14.0503 32.7025 14.0571C32.8147 14.0639 32.9099 13.9793 32.9167 13.8676C32.9235 13.756 32.8385 13.6612 32.7263 13.6545C32.6158 13.6477 32.5189 13.7323 32.5121 13.8439Z" fill="#171717"/>
<path d="M34.2113 13.7982C34.2045 13.9014 34.2844 13.9911 34.3882 13.9962C34.4919 14.0029 34.582 13.9234 34.5871 13.8202C34.5939 13.717 34.514 13.6274 34.4103 13.6223C34.3065 13.6155 34.2181 13.695 34.2113 13.7982Z" fill="#171717"/>
<path d="M33.1005 12.4753L31.5703 12.9625C31.5703 12.9625 31.9103 12.4973 32.3524 12.3585C32.7927 12.2215 33.1005 12.4753 33.1005 12.4753Z" fill="#171717"/>
<path d="M33.9609 12.4397L34.7668 12.6986C34.7668 12.6986 34.6291 12.3552 34.3962 12.2824C34.1633 12.2097 33.9609 12.4397 33.9609 12.4397Z" fill="#171717"/>
<path d="M32.7188 14.9334C32.7188 14.9334 33.2815 15.2194 33.846 15.2194C33.8443 15.2194 33.0792 15.7726 32.7188 14.9334Z" fill="white"/>
<path d="M30.0926 11.5211C30.0926 11.5211 30.9444 12.2503 33.0509 11.829C35.1574 11.4061 35.2407 9.98496 34.9874 9.48588C34.9874 9.48588 34.2121 10.0848 32.9336 9.75656C32.2212 9.57385 30.6299 8.90728 29.6744 9.62122C29.3446 9.86653 29.1541 10.2759 29.2323 10.6769C29.2952 10.9882 29.5027 11.3435 30.0926 11.5211Z" fill="#1F275F"/>
<path d="M20.4981 48.6356H15.0117V36.9419C15.0117 35.7729 15.9638 34.8255 17.1386 34.8255H18.3712C19.546 34.8255 20.4981 35.7729 20.4981 36.9419V48.6356Z" stroke="#101010" stroke-width="2.8685" stroke-miterlimit="10"/>
<path d="M16.1887 64.3055C16.3497 63.6243 15.9253 62.9421 15.2407 62.7819C14.5562 62.6216 13.8706 63.0439 13.7096 63.7251C13.5485 64.4064 13.9729 65.0885 14.6575 65.2488C15.3421 65.409 16.0276 64.9867 16.1887 64.3055Z" fill="#101010"/>
<path d="M21.463 64.9131C21.9603 64.4182 21.9603 63.6159 21.463 63.1211C20.9657 62.6262 20.1594 62.6262 19.6622 63.1211C19.1649 63.6159 19.1649 64.4182 19.6622 64.9131C20.1594 65.4079 20.9657 65.4079 21.463 64.9131Z" fill="#101010"/>
<path d="M22.1133 63.7196H13.4034C12.1605 63.7196 11.1523 62.7163 11.1523 61.4796V46.8592C11.1523 45.6225 12.1605 44.6193 13.4034 44.6193H22.1133C23.3561 44.6193 24.3643 45.6225 24.3643 46.8592V61.4796C24.3643 62.7163 23.3561 63.7196 22.1133 63.7196Z" fill="#537EEF"/>
<path d="M13.9008 47.6408H13.418V60.8418H13.9008V47.6408Z" stroke="#171717" stroke-width="0.6129" stroke-miterlimit="10" stroke-linecap="round" stroke-linejoin="round"/>
<path d="M16.4672 47.6408H15.9844V60.8418H16.4672V47.6408Z" stroke="#171717" stroke-width="0.6129" stroke-miterlimit="10" stroke-linecap="round" stroke-linejoin="round"/>
<path d="M19.0336 47.6408H18.5508V60.8418H19.0336V47.6408Z" stroke="#171717" stroke-width="0.6129" stroke-miterlimit="10" stroke-linecap="round" stroke-linejoin="round"/>
<path d="M21.5961 47.6408H21.1133V60.8418H21.5961V47.6408Z" stroke="#171717" stroke-width="0.6129" stroke-miterlimit="10" stroke-linecap="round" stroke-linejoin="round"/>
<path d="M2.85938 65.2761H117.743" stroke="black" stroke-width="0.9785" stroke-miterlimit="10" stroke-linecap="round" stroke-linejoin="round"/>
</g>
<defs>
<clipPath id="clip0_1972_19282">
<rect width="122" height="78" fill="white"/>
</clipPath>
</defs>
</svg>
