<svg width="128" height="83" viewBox="0 0 128 83" fill="none" xmlns="http://www.w3.org/2000/svg">
<path d="M10.9692 81.9702H122.9C132.178 74.6684 127.403 52.6966 119.654 48.2429C111.313 43.4483 124.558 26.867 111.709 21.485C103.319 17.9708 91.9483 21.8966 86.3943 14.3317C79.8688 5.44346 69.0283 -5.37524 48.8388 3.03168C33.2676 9.51561 41.7249 22.0161 16.2442 25.7796C3.14189 27.7138 5.67407 44.2715 6.89569 47.693C7.95962 50.6729 14.9993 55.4 5.216 61.9096C-9.13049 71.4549 10.6309 81.7945 10.9692 81.9702Z" fill="#EAFCFC"/>
<path d="M41.6992 60.6789C41.6992 60.6789 53.176 43.9386 60.0017 43.9923C66.8274 44.0461 74.263 55.0188 83.9764 64.3898C94.8619 74.8917 80.648 75.3325 79.8277 75.419C79.0074 75.5056 50.7047 74.3542 50.2328 73.7877C49.7609 73.2207 42.2039 65.9597 42.2039 65.9597L41.6992 60.6789Z" fill="#C5DDF9"/>
<path d="M100.585 61.1819H101.07V54.9916H100.585V61.1819Z" fill="#355389"/>
<path d="M100.829 42.9832L102.412 57.7151H99.2461L100.829 42.9832Z" fill="#3C8F7C"/>
<path d="M101.837 52.3719L99.5801 54.6008L99.6667 53.7933L101.767 51.7192L101.837 52.3719Z" fill="#50BFA5"/>
<path d="M101.49 49.1428L100.107 49.6865L100.172 49.0822L101.43 48.5867L101.49 49.1428Z" fill="#50BFA5"/>
<path d="M34.5382 50.283L35.9519 63.4354H33.125L34.5382 50.283Z" fill="#3C8F7C"/>
<path d="M37.0255 52.2146L38.1021 62.2314H35.9492L37.0255 52.2146Z" fill="#3C8F7C"/>
<path d="M39.1798 55.198L40.2564 65.2148H38.1035L39.1798 55.198Z" fill="#3C8F7C"/>
<path d="M31.8921 53.2202L33.3054 66.3727H30.4785L31.8921 53.2202Z" fill="#3C8F7C"/>
<path d="M37.2381 57.3106C49.4984 59.6597 67.895 80.7691 81.9067 80.7691C95.9184 80.7691 98.9356 75.7201 104.19 76.7877C109.444 77.8552 116.498 80.7691 116.498 80.7691L12.375 81.1234C12.3754 81.1234 24.9778 54.9615 37.2381 57.3106Z" fill="#86B1F2"/>
<path d="M81.6164 51.1582L83.03 64.3107H80.2031L81.6164 51.1582Z" fill="#3C8F7C"/>
<path d="M84.9809 55.0305L86.0572 65.0473H83.9043L84.9809 55.0305Z" fill="#3C8F7C"/>
<path d="M76.5005 60.3772L77.5767 70.3945H75.4238L76.5005 60.3772Z" fill="#3C8F7C"/>
<path d="M78.9722 54.0955L80.3855 67.2479H77.5586L78.9722 54.0955Z" fill="#3C8F7C"/>
<path d="M92.8094 57.3106C80.5491 59.6597 62.1526 80.7691 48.1409 80.7691C34.1291 80.7691 31.112 75.7201 25.8574 76.7877C20.6027 77.8552 13.5488 80.7691 13.5488 80.7691L117.672 81.1234C117.672 81.1234 105.07 54.9615 92.8094 57.3106Z" fill="#86B1F2"/>
<path d="M88.6127 77.0183H89.166V69.9559H88.6127V77.0183Z" fill="#355389"/>
<path d="M88.89 56.2556L90.696 73.0629H87.084L88.89 56.2556Z" fill="#3C8F7C"/>
<path d="M90.0401 66.967L87.4648 69.5097L87.5637 68.5884L89.9602 66.2224L90.0401 66.967Z" fill="#50BFA5"/>
<path d="M89.6453 63.2831L88.0684 63.9039L88.1423 63.2139L89.5773 62.6492L89.6453 63.2831Z" fill="#50BFA5"/>
<path d="M94.8645 80.0291H95.3926V69.3769H94.8645V80.0291Z" fill="#355389"/>
<path d="M94.9901 50.3857L97.5919 71.8867H92.3887L94.9901 50.3857Z" fill="#3C8F7C"/>
<path d="M97.4255 70.5223L92.7578 68.8281L92.8282 68.2451L97.3488 69.8856L97.4255 70.5223Z" fill="#50BFA5"/>
<path d="M96.6032 63.73L93.5098 62.6069L93.5802 62.0239L96.5261 63.0933L96.6032 63.73Z" fill="#50BFA5"/>
<path d="M12.375 81.1235C12.375 81.1235 25.8171 67.6787 43.1497 66.853C48.97 66.5756 72.802 72.136 92.8709 76.5045C93.7145 76.6881 95.5387 78.4861 96.3927 78.671C105.893 80.7273 114.747 81.1618 117.611 81.2948L12.375 81.1235Z" fill="#96D9C9"/>
<path d="M120.433 66.3358L120.452 65.1781C120.452 64.3196 119.883 63.6233 119.181 63.6233C117.412 63.6233 115.978 65.3776 115.978 67.5414V69.1236C115.978 69.8167 115.658 70.4184 115.19 70.7203C114.764 70.9945 114.504 71.5424 114.504 72.1312V72.9651C114.504 73.8683 114.85 74.7108 115.426 75.276C115.763 75.6067 115.978 76.114 115.978 76.6833V77.8642C115.978 79.17 116.844 80.2279 117.911 80.2279H118.52C119.588 80.2279 120.453 79.1695 120.453 77.8642C120.277 76.2151 120.702 75.2633 121.192 74.7195C121.912 73.9197 122.334 72.7948 122.334 71.6048V71.4381C122.334 70.182 121.86 69.0061 121.068 68.2068C120.719 67.8529 120.433 67.2768 120.433 66.3358Z" fill="#4E9B87"/>
<path d="M122.424 81.5983C122.424 81.5983 117.49 74.0509 114.384 72.8936C111.279 71.7359 114.205 76.3335 114.205 76.3335C114.205 76.3335 108.697 69.3977 106.675 70.023C104.822 70.5964 106.675 74.8953 106.675 74.8953C106.675 74.8953 104.588 72.5147 102.057 72.5147C99.5261 72.5147 104.013 81.4289 104.013 81.4289L122.424 81.5983Z" fill="#96D9C9"/>
<path d="M106.674 81.4295C106.674 81.4295 103.3 71.0429 99.1228 72.2439C95.7375 73.2171 98.1443 78.4432 97.9378 78.206C97.7313 77.9682 95.9159 74.4213 92.9782 74.4213C90.0406 74.4213 93.8801 79.2088 93.8801 79.2088C93.8801 79.2088 87.6208 76.9581 87.1307 79.3218C86.7241 81.2833 88.9988 81.43 88.9988 81.43H106.674V81.4295Z" fill="#3C8F7C"/>
<path d="M29.5596 79.4894C29.5786 79.3601 29.5885 79.2276 29.5885 79.0928C29.5885 77.5894 28.3651 76.3711 26.8558 76.3711C25.3464 76.3711 24.123 77.5898 24.123 79.0928C24.123 79.2276 24.1329 79.3601 24.1519 79.4894H29.5596Z" fill="#3C8F7C"/>
<path d="M32.6495 78.8205C32.6685 78.6379 32.6783 78.4511 32.6783 78.2608C32.6783 76.1407 31.455 74.4224 29.9456 74.4224C28.4363 74.4224 27.2129 76.1407 27.2129 78.2608C27.2129 78.4507 27.2228 78.6379 27.2418 78.8205H32.6495Z" fill="#50BFA5"/>
<path d="M31.65 81.1728C31.631 81.0435 31.6211 80.9109 31.6211 80.7761C31.6211 79.2727 32.8445 78.0544 34.3538 78.0544C35.8632 78.0544 37.0866 79.2732 37.0866 80.7761C37.0866 80.9109 37.0767 81.0435 37.0577 81.1728H31.65Z" fill="#50BFA5"/>
<path d="M27.277 81.1728C27.2529 80.9901 27.2402 80.8034 27.2402 80.613C27.2402 78.493 28.7911 76.7747 30.7047 76.7747C32.6179 76.7747 34.1692 78.493 34.1692 80.613C34.1692 80.803 34.1565 80.9901 34.1324 81.1728H27.277Z" fill="#3C8F7C"/>
<path d="M29.9371 76.7747C28.9807 76.7747 28.1267 77.3198 27.5627 78.1751C27.2755 78.0968 26.9706 78.0544 26.6542 78.0544C24.9565 78.0544 23.5801 79.2732 23.5801 80.7761C23.5801 80.9109 23.5912 81.0434 23.6125 81.1728H32.9783C32.9997 80.9901 33.0107 80.8034 33.0107 80.613C33.0111 78.493 31.6347 76.7747 29.9371 76.7747Z" fill="#50BFA5"/>
<path d="M18.0881 73.0877C17.2836 71.6403 17.1337 69.8928 17.1491 68.6818C17.1661 67.367 17.377 66.3824 17.3789 66.3728L17.3208 66.3491C17.3188 66.3591 17.106 67.3506 17.089 68.6741C17.0728 69.8974 17.2247 71.6627 18.0391 73.1278L18.0881 73.0877Z" fill="#3C8F7C"/>
<path d="M17.5783 66.1321C17.5586 66.4295 17.4443 66.6791 17.2793 66.8326C17.1385 66.6253 17.0594 66.3416 17.0792 66.0442C17.099 65.7468 17.2133 65.4972 17.3782 65.3438C17.5194 65.5505 17.5981 65.8342 17.5783 66.1321Z" fill="#3C8F7C"/>
<path d="M17.0353 66.8189C17.1718 67.0762 17.2141 67.3695 17.1702 67.6241C16.9614 67.5667 16.7588 67.3982 16.6224 67.1409C16.4859 66.8836 16.4436 66.5903 16.4871 66.3357C16.6963 66.3931 16.8989 66.5611 17.0353 66.8189Z" fill="#3C8F7C"/>
<path d="M16.7256 67.6269C16.9376 67.7859 17.0812 68.0309 17.1366 68.2891C16.9353 68.3552 16.6991 68.3156 16.4871 68.1566C16.2751 67.9977 16.1315 67.7526 16.0762 67.4944C16.2775 67.4284 16.5136 67.468 16.7256 67.6269Z" fill="#3C8F7C"/>
<path d="M16.8204 68.7531C16.9881 68.8792 17.0921 69.0951 17.1206 69.3333C16.9457 69.4189 16.7492 69.4085 16.5815 69.2823C16.4138 69.1561 16.3097 68.9403 16.2812 68.7021C16.4557 68.6165 16.6527 68.6269 16.8204 68.7531Z" fill="#3C8F7C"/>
<path d="M17.5135 67.4193C17.7022 67.3031 17.9134 67.2968 18.0937 67.3806C18.0459 67.6051 17.9189 67.8068 17.7306 67.923C17.542 68.0391 17.3308 68.0455 17.1504 67.9617C17.1979 67.7367 17.3248 67.5354 17.5135 67.4193Z" fill="#3C8F7C"/>
<path d="M17.494 68.1961C17.6826 68.08 17.8938 68.0736 18.0742 68.1574C18.0263 68.3819 17.8994 68.5837 17.7111 68.6998C17.5224 68.816 17.3112 68.8223 17.1309 68.7385C17.1783 68.5136 17.3053 68.3123 17.494 68.1961Z" fill="#3C8F7C"/>
<path d="M16.9404 69.9893C17.0401 70.0162 17.1228 70.0936 17.173 70.1947C17.1022 70.263 17.0061 70.2927 16.9064 70.2658C16.8067 70.2389 16.7241 70.1615 16.6738 70.0604C16.7446 69.9921 16.8407 69.9625 16.9404 69.9893Z" fill="#3C8F7C"/>
<path d="M17.7566 74.11C15.9154 73.6031 14.5113 72.035 13.6577 70.809C12.731 69.4778 12.2342 68.2508 12.2294 68.2385L12.1543 68.2827C12.159 68.295 12.6594 69.531 13.5921 70.8714C14.4539 72.1097 15.8727 73.6937 17.7364 74.207L17.7566 74.11Z" fill="#3C8F7C"/>
<path d="M12.2526 67.7684C12.4465 68.0882 12.5117 68.4703 12.4571 68.8146C12.168 68.7718 11.8856 68.5809 11.6918 68.2612C11.498 67.9415 11.4327 67.5594 11.4873 67.2151C11.7764 67.2574 12.0588 67.4487 12.2526 67.7684Z" fill="#3C8F7C"/>
<path d="M12.2037 69.086C12.5244 69.184 12.7772 69.4272 12.9164 69.7319C12.6668 69.9177 12.3441 69.9855 12.0233 69.8876C11.7025 69.7897 11.4498 69.5465 11.3105 69.2418C11.5601 69.0555 11.8825 68.9881 12.2037 69.086Z" fill="#3C8F7C"/>
<path d="M12.4752 70.2507C12.8008 70.1623 13.1196 70.2398 13.3604 70.4329C13.207 70.733 12.9431 70.9684 12.6176 71.0568C12.2921 71.1452 11.9733 71.0677 11.7324 70.8746C11.8859 70.5745 12.1497 70.339 12.4752 70.2507Z" fill="#3C8F7C"/>
<path d="M13.2116 71.3093C13.5371 71.2209 13.8559 71.2983 14.0968 71.4915C13.9433 71.7916 13.6795 72.027 13.354 72.1154C13.0284 72.2037 12.7096 72.1263 12.4688 71.9332C12.6222 71.6331 12.8864 71.3976 13.2116 71.3093Z" fill="#3C8F7C"/>
<path d="M12.9919 69.5491C12.9757 69.1889 13.0785 68.8496 13.2541 68.6055C13.4499 68.7977 13.582 69.1037 13.5983 69.464C13.6145 69.8242 13.5116 70.1635 13.336 70.4076C13.1406 70.2159 13.0081 69.9094 12.9919 69.5491Z" fill="#3C8F7C"/>
<path d="M13.7567 70.6447C13.7357 70.2849 13.8338 69.9433 14.0067 69.6956C14.2048 69.8837 14.3409 70.187 14.3623 70.5468C14.3832 70.9066 14.2851 71.2481 14.1123 71.4959C13.9141 71.3078 13.7777 71.0045 13.7567 70.6447Z" fill="#3C8F7C"/>
<path d="M14.3886 72.3544C14.5073 72.2652 14.6457 72.246 14.7675 72.2884C14.7458 72.4391 14.6714 72.5799 14.5527 72.6691C14.4341 72.7584 14.2957 72.7775 14.1738 72.7352C14.1956 72.5849 14.2699 72.4437 14.3886 72.3544Z" fill="#3C8F7C"/>
<path d="M22.6326 77.1043L22.7121 77.0984C22.5974 74.6737 23.3707 72.392 24.0391 70.905C24.7649 69.2914 25.5275 68.2389 25.5354 68.2284L25.4769 68.1592C25.4694 68.1697 24.7013 69.229 23.9711 70.8522C23.2963 72.3519 22.5167 74.6537 22.6326 77.1043Z" fill="#3C8F7C"/>
<path d="M25.8775 68.0897C25.6955 68.4422 25.4349 68.6608 25.1699 68.7209C25.1252 68.3538 25.19 67.9408 25.3716 67.5883C25.5535 67.2358 25.8142 67.0171 26.0792 66.957C26.1243 67.3241 26.0594 67.7372 25.8775 68.0897Z" fill="#3C8F7C"/>
<path d="M24.9108 68.5118C24.9239 68.9376 24.8131 69.3334 24.628 69.6139C24.4271 69.3785 24.2934 69.0114 24.2803 68.5855C24.2673 68.1597 24.378 67.7639 24.5631 67.4834C24.7641 67.7189 24.8978 68.0859 24.9108 68.5118Z" fill="#3C8F7C"/>
<path d="M24.1345 69.2695C24.284 69.6325 24.3117 70.0487 24.2341 70.4117C23.9755 70.3352 23.7346 70.1002 23.5851 69.7372C23.4356 69.3742 23.4079 68.958 23.4854 68.595C23.7441 68.6719 23.9846 68.9065 24.1345 69.2695Z" fill="#3C8F7C"/>
<path d="M23.5985 71.1324C23.6701 71.2786 23.6918 71.4516 23.6685 71.6069C23.5582 71.5851 23.4518 71.4967 23.3798 71.3505C23.3082 71.2043 23.2864 71.0313 23.3098 70.876C23.4201 70.8974 23.5269 70.9862 23.5985 71.1324Z" fill="#3C8F7C"/>
<path d="M23.37 71.8011C23.4416 71.9473 23.4633 72.1203 23.44 72.2757C23.3296 72.2538 23.2232 72.165 23.1513 72.0192C23.0797 71.873 23.0579 71.7 23.0812 71.5447C23.1916 71.5661 23.298 71.6549 23.37 71.8011Z" fill="#3C8F7C"/>
<path d="M25.118 69.632C25.3893 69.6365 25.627 69.7946 25.7825 70.04C25.6088 70.28 25.3601 70.4299 25.0883 70.4253C24.8166 70.4208 24.5793 70.2627 24.4238 70.0173C24.5975 69.7768 24.8467 69.6269 25.118 69.632Z" fill="#3C8F7C"/>
<path d="M24.6766 70.577C24.9479 70.5816 25.1856 70.7396 25.3411 70.9851C25.1674 71.2251 24.9186 71.3749 24.6469 71.3704C24.3752 71.3658 24.1379 71.2078 23.9824 70.9623C24.1561 70.7218 24.4048 70.5725 24.6766 70.577Z" fill="#3C8F7C"/>
<path d="M23.9478 71.8653C24.1246 71.8685 24.2792 71.9709 24.3801 72.1308C24.2674 72.287 24.1052 72.3845 23.9284 72.3818C23.7516 72.3786 23.597 72.2761 23.4961 72.1162C23.6092 71.9596 23.7714 71.8626 23.9478 71.8653Z" fill="#3C8F7C"/>
<path d="M15.7653 81.0805C15.7653 80.677 17.8822 81.1534 18.0582 80.6032C18.2342 80.053 16.2451 80.0216 16.2451 79.2779C16.2451 78.5342 17.2588 79.0556 17.8533 79.0556C18.4478 79.0556 16.6798 78.7373 16.6798 78.4741C16.6798 78.2108 17.3 78.3488 17.3 78.0692C17.3 77.7895 14.0424 77.5787 14.4237 76.8946C14.805 76.2101 16.556 77.0941 17.037 76.7398C17.5179 76.3854 14.468 75.9997 14.3928 75.4732C14.3173 74.9467 16.6398 75.9245 16.9689 75.5456C17.298 75.1667 13.2964 73.8059 13.4641 72.8057C13.6318 71.8056 16.4971 74.0869 17.2134 73.8409C17.9297 73.5955 13.6014 70.0841 14.6072 68.7159C15.613 67.3478 17.5333 73.2443 18.1887 73.0339C18.8441 72.8235 17.368 69.308 18.0376 68.6964C18.7073 68.0847 20.6288 73.6456 20.7502 74.7873C20.8716 75.9291 21.1153 72.3312 22.167 71.9103C23.2187 71.4895 22.1975 74.1392 22.3802 74.9467C22.5629 75.7542 23.4165 72.8759 24.5671 73.0867C25.7177 73.2971 22.4866 75.9295 22.807 76.702C23.127 77.4739 25.622 74.1242 26.4039 75.0246C27.1859 75.925 23.3987 78.423 23.6059 79.1071C23.8132 79.7907 26.0851 78.6189 26.7393 79.3722C27.3936 80.1255 24.2985 80.6041 23.888 80.6041C23.4774 80.6041 21.9091 81.198 23.441 81.0814C24.9725 80.9635 15.7653 81.484 15.7653 81.0805Z" fill="#3C8F7C"/>
<path d="M21.7988 81.546C21.7988 81.546 24.348 81.7031 25.09 81.1653C25.8321 80.6274 25.2463 80.2084 25.2463 80.2084C25.2463 80.2084 27.6037 80.1492 27.5977 79.5061C27.5918 78.8631 27.0202 78.8999 27.0202 78.8999C27.0202 78.8999 28.21 77.969 27.9881 77.3884C27.6472 76.4966 25.7091 78.0492 25.7091 78.0492C25.7091 78.0492 26.3443 77.1807 25.8309 76.9776C24.4224 76.421 21.7988 81.546 21.7988 81.546Z" fill="#50BFA5"/>
<path d="M27.9885 77.3892C28.2104 77.9694 27.0206 78.9007 27.0206 78.9007C27.0206 78.9007 27.8793 78.8875 27.7401 79.5128C27.6013 80.1359 25.4421 80.3463 25.4421 80.3463C25.4421 80.3463 26.196 80.5162 25.4535 81.054C24.7115 81.5919 21.7988 81.5464 21.7988 81.5464L27.9885 77.3892Z" fill="#96D9C9"/>
<path d="M11.9024 78.8484C11.9182 78.669 11.9265 78.4854 11.9265 78.2987C11.9265 76.2169 10.8981 74.5295 9.62928 74.5295C8.36081 74.5295 7.33203 76.2169 7.33203 78.2987C7.33203 78.4854 7.34034 78.669 7.35616 78.8484H11.9024Z" fill="#3C8F7C"/>
<path d="M14.502 77.922C14.5178 77.6693 14.5261 77.4101 14.5261 77.1469C14.5261 74.2111 13.4978 71.8311 12.2289 71.8311C10.9604 71.8311 9.93164 74.2111 9.93164 77.1469C9.93164 77.4101 9.93995 77.6688 9.95577 77.922H14.502Z" fill="#50BFA5"/>
<path d="M13.6608 81.1797C13.645 81.0002 13.6367 80.8167 13.6367 80.63C13.6367 78.5482 14.6651 76.8604 15.934 76.8604C17.2024 76.8604 18.2312 78.5482 18.2312 80.63C18.2312 80.8167 18.2229 81.0002 18.2071 81.1797H13.6608Z" fill="#50BFA5"/>
<path d="M9.98398 81.1798C9.9638 80.9271 9.95312 80.6679 9.95312 80.4047C9.95312 77.469 11.2568 75.0889 12.865 75.0889C14.4733 75.0889 15.7769 77.469 15.7769 80.4047C15.7769 80.6679 15.7663 80.9266 15.7461 81.1798H9.98398Z" fill="#3C8F7C"/>
<path d="M12.2202 75.0889C11.4165 75.0889 10.6982 75.844 10.2243 77.0281C9.98306 76.9193 9.72676 76.861 9.46096 76.861C8.03388 76.861 6.87695 78.5483 6.87695 80.6301C6.87695 80.8168 6.88645 81.0004 6.90424 81.1798H14.7765C14.7943 80.9271 14.8038 80.6679 14.8038 80.4047C14.8038 77.469 13.6473 75.0889 12.2202 75.0889Z" fill="#50BFA5"/>
<path opacity="0.5" d="M58.9762 28.3882C58.7722 27.3653 57.9771 26.602 57.0267 26.602C56.8522 26.602 56.683 26.628 56.5216 26.6763C56.0525 25.5213 55.0344 24.7206 53.8537 24.7206C53.5484 24.7206 53.2541 24.7739 52.9772 24.8732C52.3416 23.6613 51.187 22.8511 49.8679 22.8511C48.2985 22.8511 46.962 23.9979 46.4553 25.6033C46.0969 25.3733 45.684 25.2416 45.2446 25.2416C43.8689 25.2416 42.7539 26.5255 42.7539 28.1095C42.7539 28.2033 42.7583 28.2962 42.7658 28.3878H58.9762V28.3882Z" fill="white"/>
<path opacity="0.5" d="M81.0762 46.2808C81.1747 45.788 81.5575 45.4205 82.0152 45.4205C82.099 45.4205 82.1805 45.4328 82.2584 45.456C82.4843 44.8999 82.9747 44.5142 83.5431 44.5142C83.6902 44.5142 83.8318 44.5402 83.9651 44.588C84.2713 44.0046 84.827 43.6143 85.4622 43.6143C86.2181 43.6143 86.8616 44.1667 87.1057 44.9396C87.2781 44.8289 87.4771 44.7651 87.6887 44.7651C88.3512 44.7651 88.8879 45.3836 88.8879 46.146C88.8879 46.1911 88.8859 46.2357 88.8824 46.2799H81.0762V46.2808Z" fill="white"/>
<path opacity="0.5" d="M67.3699 39.8723C67.2492 39.2671 66.7786 38.8153 66.2161 38.8153C66.1129 38.8153 66.0128 38.8308 65.9171 38.859C65.6394 38.1754 65.037 37.7017 64.3385 37.7017C64.1578 37.7017 63.9837 37.7332 63.82 37.7924C63.4438 37.0751 62.7607 36.5959 61.98 36.5959C61.0513 36.5959 60.2602 37.2745 59.9604 38.225C59.7484 38.0889 59.5039 38.011 59.2437 38.011C58.4297 38.011 57.7695 38.7706 57.7695 39.7084C57.7695 39.7639 57.7719 39.819 57.7766 39.8732H67.3699V39.8723Z" fill="white"/>
<path opacity="0.5" d="M86.0612 32.7607C85.8983 31.9432 85.2627 31.3329 84.5028 31.3329C84.3632 31.3329 84.2279 31.3534 84.099 31.3921C83.724 30.4689 82.9104 29.8295 81.9671 29.8295C81.723 29.8295 81.4881 29.8723 81.2666 29.9516C80.7587 28.9833 79.836 28.3357 78.7815 28.3357C77.5272 28.3357 76.4589 29.2525 76.0543 30.5354C75.7679 30.3514 75.438 30.2462 75.0864 30.2462C73.9872 30.2462 73.0957 31.2723 73.0957 32.5384C73.0957 32.6136 73.0989 32.6878 73.1052 32.7607H86.0612Z" fill="white"/>
<path opacity="0.5" d="M33.7949 42.7469C33.8764 42.3393 34.1932 42.035 34.5717 42.035C34.6414 42.035 34.7086 42.0455 34.7731 42.0646C34.9602 41.6047 35.3656 41.2854 35.8359 41.2854C35.9573 41.2854 36.0748 41.3068 36.1851 41.3464C36.4383 40.8637 36.8983 40.5408 37.4239 40.5408C38.0493 40.5408 38.5816 40.9976 38.7834 41.6375C38.9262 41.5459 39.0907 41.4935 39.2659 41.4935C39.8141 41.4935 40.2583 42.005 40.2583 42.6362C40.2583 42.6736 40.2567 42.7105 40.2536 42.7469H33.7949Z" fill="white"/>
<path d="M123.694 82.1583H5.31065C5.06265 82.1583 4.86133 81.9265 4.86133 81.6409C4.86133 81.3554 5.06265 81.1235 5.31065 81.1235H123.695C123.943 81.1235 124.144 81.3554 124.144 81.6409C124.144 81.9269 123.943 82.1583 123.694 82.1583Z" fill="#183658"/>
<path d="M10.4916 59.8405C10.4954 59.7067 10.6801 59.6032 10.7778 59.7217C10.8751 59.8398 10.8709 59.76 10.9659 60.0153C11.2384 60.7487 11.6388 61.458 12.1047 62.0783C12.9975 63.2663 13.8819 63.8655 14.8854 64.4594C14.472 63.527 14.1949 62.5318 14.1597 61.5281C14.1467 61.1624 14.1539 60.7828 14.3103 60.447C14.3539 60.3531 14.5218 60.3726 14.5386 60.4769C14.6229 60.9949 14.4988 61.3855 14.6666 62.3125C15.0666 64.5249 16.6491 66.8711 18.1761 68.5143C17.8833 65.7325 17.7416 62.5713 18.265 59.7654C18.3508 59.3053 18.4872 58.8675 18.6144 58.4178C18.6443 58.312 18.7945 58.3577 18.7761 58.4627C18.7497 58.6122 18.5002 60.5429 18.4853 60.6763C18.2431 62.8132 18.2918 65.1801 18.4799 67.3389C19.6643 65.7341 20.4571 63.8575 20.8276 61.8977C20.9372 61.3184 20.9663 60.7204 21.12 60.1518C21.1411 60.0736 21.2706 60.0652 21.2867 60.1518C21.4445 61.0037 21.1284 62.5103 20.8981 63.3292C20.4314 64.9884 19.685 66.4755 18.6646 67.8043C18.6248 67.856 20.3035 80.8388 20.2586 81.0033C20.1824 81.2805 19.7 81.4752 19.6249 80.9834C19.5942 80.7832 18.6719 72.8889 18.2558 69.2323C18.0987 69.1457 17.9971 68.9916 17.5929 68.5365C16.6564 67.4834 15.7307 66.1734 15.1119 64.9374C14.7406 64.9163 12.0588 63.611 10.7288 60.6383C10.6904 60.5528 10.5176 60.1503 10.4931 60.0606C10.4713 59.9831 10.4893 59.9164 10.4916 59.8405Z" fill="#184655"/>
<path d="M19.105 55.6312C19.0743 55.2317 19.0586 54.823 19.0586 54.4071C19.0586 49.7698 21.0258 46.0105 23.4524 46.0105C25.879 46.0105 27.8462 49.7698 27.8462 54.4071C27.8462 54.823 27.8305 55.2317 27.7999 55.6312H19.105Z" fill="#50BFA5"/>
<path d="M14.1323 53.5675C14.1016 53.0039 14.0859 52.4277 14.0859 51.8411C14.0859 45.3012 16.0531 40 18.4798 40C20.9064 40 22.8736 45.3016 22.8736 51.8411C22.8736 52.4273 22.8579 53.0039 22.8272 53.5675H14.1323Z" fill="#96D9C9"/>
<path d="M15.7413 60.824C15.7719 60.4245 15.7877 60.0158 15.7877 59.5999C15.7877 54.9626 13.8205 51.2033 11.3938 51.2033C8.9672 51.2033 7 54.9626 7 59.5999C7 60.0158 7.01609 60.4245 7.04636 60.824H15.7413Z" fill="#96D9C9"/>
<path d="M22.7747 60.8238C22.8134 60.2602 22.8337 59.684 22.8337 59.0975C22.8337 52.5576 20.34 47.2563 17.2635 47.2563C14.1874 47.2563 11.6934 52.558 11.6934 59.0975C11.6934 59.6837 11.7137 60.2602 11.7524 60.8238H22.7747Z" fill="#50BFA5"/>
<path d="M18.4968 47.2563C20.0341 47.2563 21.4078 48.9382 22.3144 51.5758C22.7761 51.3335 23.2666 51.2031 23.7746 51.2031C26.5043 51.2031 28.7172 54.9625 28.7172 59.5997C28.7172 60.0153 28.6992 60.4239 28.6651 60.8238H13.6068C13.5723 60.2602 13.5547 59.684 13.5547 59.0975C13.5547 52.5576 15.7675 47.2563 18.4968 47.2563Z" fill="#96D9C9"/>
<path d="M60.8184 59.5628V59.3918H60.2367V59.5628H60.8184Z" fill="#F7CC7F"/>
<path d="M61.465 63.4408V59.3752C61.465 59.1064 61.2474 58.8887 60.9788 58.8887H60.1327C59.8641 58.8887 59.6465 59.1064 59.6465 59.3752V63.4412C59.6465 63.7099 59.8641 63.9277 60.1327 63.9277H60.9788C61.2474 63.9273 61.465 63.7095 61.465 63.4408Z" fill="#F47458"/>
<path d="M60.5547 63.9273H61.0425C61.275 63.9273 61.464 63.8246 61.464 63.6977V59.1183C61.464 58.9914 61.3318 58.8887 61.0988 58.8887H60.5547V63.9273Z" fill="#B75742"/>
<path d="M60.6348 61.9266V60.7527H60.4198V61.9266H60.6348Z" fill="#1A1A1A"/>
<path d="M63.1974 63.434V60.4756C63.1974 60.203 62.9767 59.9822 62.7043 59.9822H61.872C61.5996 59.9822 61.3789 60.203 61.3789 60.4756V63.434C61.3789 63.7066 61.5996 63.9274 61.872 63.9274H62.7043C62.9767 63.9274 63.1974 63.7066 63.1974 63.434Z" fill="#355389"/>
<path d="M62.2871 63.9276H62.7749C63.0075 63.9276 63.1964 63.8471 63.1964 63.7478V60.1617C63.1964 60.0624 63.0079 59.9819 62.7749 59.9819H62.2871V63.9276Z" fill="#5184CE"/>
<path d="M62.5527 60.5101V60.3759H61.9711V60.5101H62.5527Z" fill="#F7CC7F"/>
<path d="M62.3672 62.361V61.4417H62.1522V62.361H62.3672Z" fill="#1A1A1A"/>
<path d="M53.6807 63.9922H53.5938V64.8774H53.6807V63.9922Z" fill="#13375B"/>
<path d="M64.2178 63.9922H64.1309V64.8774H64.2178V63.9922Z" fill="#13375B"/>
<path d="M60.4165 62.1072H54.4103C54.1157 62.1072 53.877 62.346 53.877 62.6408V63.393C53.877 63.6878 54.1157 63.9266 54.4103 63.9266H60.4165C60.7112 63.9266 60.9499 63.6878 60.9499 63.393V62.6408C60.9503 62.346 60.7112 62.1072 60.4165 62.1072Z" fill="#B75742"/>
<path d="M60.9503 63.0169V62.5289C60.9503 62.2962 60.8058 62.1072 60.628 62.1072H54.1992C54.0214 62.1072 53.877 62.2958 53.877 62.5289V63.0169H60.9503Z" fill="#91342A"/>
<path d="M55.0137 62.7522H54.7734V63.3342H55.0137V62.7522Z" fill="#F7CC7F"/>
<path d="M60.0508 62.7522H59.8105V63.3342H60.0508V62.7522Z" fill="#F7CC7F"/>
<path d="M58.1402 62.9355H56.4922V63.1506H58.1402V62.9355Z" fill="#1A1A1A"/>
<path d="M59.3581 60.2876H55.467C55.1509 60.2876 54.8945 60.5441 54.8945 60.8604V61.5339C54.8945 61.8502 55.1509 62.1067 55.467 62.1067H59.3581C59.6742 62.1067 59.9306 61.8502 59.9306 61.5339V60.8604C59.9306 60.5441 59.6742 60.2876 59.3581 60.2876Z" fill="#4E9B87"/>
<path d="M59.9309 61.1973V60.7093C59.9309 60.4766 59.8282 60.2876 59.7014 60.2876H55.1241C54.9972 60.2876 54.8945 60.4762 54.8945 60.7093V61.1973H59.9309Z" fill="#3C8F7C"/>
<path d="M55.5674 60.933H55.3965V61.5149H55.5674V60.933Z" fill="#F7CC7F"/>
<path d="M63.8313 63.9253L59.6647 63.923L59.5977 62.0659H63.8313C64.3448 62.0659 64.7605 62.4823 64.7605 62.9956C64.7605 63.5089 64.3444 63.9253 63.8313 63.9253Z" fill="#FAE0B2"/>
<path d="M60.5538 62.9955C60.5538 63.5088 60.1706 63.9251 59.6978 63.9251C59.225 63.9251 58.8418 63.5088 58.8418 62.9955C58.8418 62.4821 59.225 62.0658 59.6978 62.0658C60.1706 62.0658 60.5538 62.4821 60.5538 62.9955Z" fill="#F7CC7F"/>
<path d="M61.4347 64.0125L61.4339 64.0117C61.3956 63.9818 61.3879 63.9274 61.4159 63.8875C61.6979 63.4888 61.7765 63.0644 61.6493 62.6251C61.5784 62.3805 61.4592 62.1942 61.3922 62.1018C61.3649 62.0646 61.3707 62.0124 61.4052 61.9818L61.4063 61.981C61.4462 61.9457 61.5075 61.9522 61.5389 61.9952C61.6144 62.0987 61.7424 62.3 61.8213 62.5672C61.9232 62.9134 61.9569 63.4355 61.5638 63.9922C61.5339 64.0347 61.4753 64.0439 61.4347 64.0125Z" fill="#F47458"/>
<path d="M62.9597 64.0126L62.9589 64.0118C62.9206 63.9819 62.9129 63.9275 62.9413 63.8876C63.2233 63.4889 63.3019 63.0645 63.1747 62.6252C63.1038 62.3806 62.9846 62.1942 62.9175 62.1019C62.8903 62.0647 62.8961 62.0125 62.9306 61.9819L62.9317 61.9811C62.9716 61.9458 63.0329 61.9523 63.0643 61.9953C63.1398 62.0988 63.2678 62.3001 63.3467 62.5673C63.4486 62.9134 63.4823 63.4356 63.0892 63.9922C63.0589 64.0348 63.0003 64.044 62.9597 64.0126Z" fill="#F47458"/>
<path d="M60.4052 62.8294C60.3596 62.5365 60.2013 62.3889 60.0768 62.3164C59.8913 62.2091 59.653 62.1938 59.4388 62.2762C59.2353 62.3544 59.0729 62.5323 59.0146 62.7408C58.9629 62.9264 59.0012 63.115 59.1227 63.2718C59.3269 63.5356 59.64 63.4938 59.7929 63.4278C59.9316 63.368 60.0354 63.2258 60.058 63.0659C60.076 62.9367 60.0178 62.8118 59.9055 62.7401C59.7925 62.668 59.6542 62.6672 59.5434 62.7385C59.463 62.7903 59.3833 62.893 59.4587 63.0866L59.52 63.0629C59.4718 62.9387 59.4909 62.8509 59.5791 62.7937C59.6676 62.7366 59.7791 62.737 59.8699 62.7953C59.9603 62.8528 60.0071 62.9532 59.9929 63.0567C59.9737 63.1944 59.8848 63.3163 59.7668 63.3673C59.6312 63.4259 59.3541 63.4631 59.1748 63.2315C59.0357 63.0517 59.0453 62.875 59.0779 62.7585C59.13 62.5725 59.2806 62.4073 59.4622 62.3375C59.6576 62.2624 59.8752 62.2758 60.0435 62.3736C60.2044 62.4667 60.3071 62.6281 60.34 62.8397C60.3829 63.1154 60.3312 63.3351 60.1868 63.493C59.9151 63.7894 59.3392 63.7851 59.2403 63.7821C59.2763 63.8066 59.3139 63.8285 59.353 63.8472C59.3545 63.8472 59.3564 63.8472 59.358 63.8472C59.5331 63.8472 59.9779 63.8177 60.235 63.5379C60.3941 63.3642 60.4515 63.1261 60.4052 62.8294Z" fill="#F47458"/>
<path d="M59.29 60.9329H59.1191V61.5148H59.29V60.9329Z" fill="#F7CC7F"/>
<path d="M57.9311 61.1162H56.7578V61.3313H57.9311V61.1162Z" fill="#1A1A1A"/>
<path d="M56.3848 60.2097L54.4043 63.9668L54.4609 63.9967L56.4414 60.2396L56.3848 60.2097Z" fill="black"/>
<path d="M58.6054 60.1824L58.5488 60.2123L60.5808 64.066L60.6374 64.0362L58.6054 60.1824Z" fill="black"/>
<path d="M62.7917 59.9299L62.7324 59.9541L64.3788 63.9962L64.4381 63.9721L62.7917 59.9299Z" fill="black"/>
<path d="M60.8201 58.8533L60.7598 58.8746L62.565 63.994L62.6254 63.9727L60.8201 58.8533Z" fill="black"/>
<path d="M64.6229 63.9225H53.207V64.0424H64.6229V63.9225Z" fill="#13375B"/>
<path d="M45.1855 76.7072C45.1855 76.7072 53.8966 78.1536 54.0008 78.0908C54.1054 78.0279 55.2335 73.1583 55.2335 73.1583C55.2335 73.1583 48.0302 71.8625 47.9133 71.8625C47.7969 71.8625 46.2301 73.1166 46.209 73.2001C46.1883 73.2837 45.1855 76.7072 45.1855 76.7072Z" fill="#183658"/>
<path d="M71.7563 77.9444C71.9652 77.9651 82.5142 77.7393 82.5142 77.7393L81.7203 75.311C81.7203 75.311 80.2581 73.0986 79.4853 73.1388C78.7124 73.1791 74.1155 72.4334 73.3223 72.984C72.5292 73.5345 71.8188 73.0955 71.4429 74.4124C71.067 75.7293 70.7735 75.8765 71.0666 76.6701C71.3594 77.464 71.7563 77.9444 71.7563 77.9444Z" fill="#183658"/>
<path d="M49.5848 81.1678C51.5679 81.1678 53.1755 79.5588 53.1755 77.5741C53.1755 75.5893 51.5679 73.9803 49.5848 73.9803C47.6018 73.9803 45.9941 75.5893 45.9941 77.5741C45.9941 79.5588 47.6018 81.1678 49.5848 81.1678Z" fill="#1A1A1A"/>
<path d="M49.5842 80.0745C50.964 80.0745 52.0825 78.9551 52.0825 77.5742C52.0825 76.1933 50.964 75.0739 49.5842 75.0739C48.2045 75.0739 47.0859 76.1933 47.0859 77.5742C47.0859 78.9551 48.2045 80.0745 49.5842 80.0745Z" fill="#9E9DA2"/>
<path d="M49.5847 79.2462C50.5074 79.2462 51.2553 78.4976 51.2553 77.574C51.2553 76.6504 50.5074 75.9017 49.5847 75.9017C48.662 75.9017 47.9141 76.6504 47.9141 77.574C47.9141 78.4976 48.662 79.2462 49.5847 79.2462Z" fill="#D8D9DD"/>
<path d="M77.2255 81.1679C79.2086 81.1679 80.8162 79.5589 80.8162 77.5742C80.8162 75.5894 79.2086 73.9805 77.2255 73.9805C75.2424 73.9805 73.6348 75.5894 73.6348 77.5742C73.6348 79.5589 75.2424 81.1679 77.2255 81.1679Z" fill="#1A1A1A"/>
<path d="M77.2248 80.0747C78.6046 80.0747 79.7231 78.9552 79.7231 77.5743C79.7231 76.1934 78.6046 75.074 77.2248 75.074C75.8451 75.074 74.7266 76.1934 74.7266 77.5743C74.7266 78.9552 75.8451 80.0747 77.2248 80.0747Z" fill="#9E9DA2"/>
<path d="M75.5547 77.5741C75.5547 78.4977 76.3026 79.2464 77.2253 79.2464C78.148 79.2464 78.8959 78.4977 78.8959 77.5741C78.8959 76.6506 78.148 75.9019 77.2253 75.9019C76.3026 75.9022 75.5547 76.6506 75.5547 77.5741Z" fill="#D8D9DD"/>
<path d="M85.4721 74.154C85.1686 72.1512 84.1873 71.7307 81.2844 71.1499C78.0815 70.5089 74.0149 68.4188 74.0149 68.4188C74.0149 68.4188 67.0795 65.019 65.3805 64.6288C63.6815 64.2385 59.5034 64.3501 55.9943 64.378C52.4848 64.406 50.4238 65.3813 48.6412 66.7745C46.8587 68.1676 43.7669 69.2269 43.7669 69.2269L43.2052 69.3273C42.6278 69.4305 42.207 69.9331 42.207 70.52V75.4896C42.207 76.0524 42.586 76.5447 43.1297 76.688L45.1594 77.2244C45.3245 77.2527 45.4785 77.1354 45.4966 76.9683C45.7188 74.9353 47.4756 73.3899 49.5704 73.3926C51.7978 73.3953 53.6244 75.2266 53.6232 77.4552C53.6232 77.7086 53.5995 77.9562 53.555 78.1966C53.5091 78.4446 53.6995 78.6735 53.9516 78.6735H72.632C72.9949 78.6735 73.2769 78.3545 73.229 77.9946C73.206 77.8213 73.1937 77.6445 73.193 77.4651C73.1864 75.2638 74.9655 73.439 77.1653 73.3937C79.4455 73.3466 81.3085 75.1822 81.3085 77.4529C81.3085 77.6031 81.3005 77.7515 81.2844 77.8976C81.2392 78.3112 81.5591 78.6735 81.9752 78.6735H84.6613C85.1498 78.6735 85.5456 78.2775 85.5456 77.7887V75.1856C85.546 74.8406 85.5238 74.4955 85.4721 74.154Z" fill="#F7CC7F"/>
<path d="M42.3245 71.1082H44.537C44.7266 71.1082 44.855 71.3014 44.7814 71.4762L44.5327 72.0696C44.2959 72.6351 43.7426 73.0031 43.13 73.0031H42.3245C42.167 73.0031 42.0391 72.8751 42.0391 72.7175V71.3938C42.0391 71.2358 42.167 71.1082 42.3245 71.1082Z" fill="#CF283C"/>
<path d="M81.9515 72.0278C83.17 72.2145 84.5732 73.3688 84.5732 73.3688C84.9085 73.7295 84.6314 74.3149 84.1402 74.2839L81.7645 74.1336C81.271 74.1026 80.8503 73.7648 80.7127 73.2894C80.4813 72.4913 80.6782 71.8326 81.9515 72.0278Z" fill="#EAFCFC"/>
<path d="M42.2192 75.6749C42.0671 75.6711 41.959 75.8244 42.015 75.9659C42.174 76.3665 42.5146 76.6816 42.9503 76.7966L45.2248 77.3978C45.4099 77.4296 45.5823 77.2981 45.6026 77.111C45.6448 76.7257 45.7367 76.3565 45.8708 76.0081C45.9164 75.89 45.8306 75.7631 45.7041 75.76L42.2192 75.6749Z" fill="#EAB054"/>
<path d="M81.3274 76.6114C81.1546 76.6072 81.0212 76.7586 81.0434 76.9304C81.068 77.1209 81.0806 77.3153 81.0806 77.5123C81.0806 77.6791 81.0714 77.8439 81.0538 78.0061C81.0036 78.465 81.3588 78.8672 81.8201 78.8672H84.8008C85.3426 78.8672 85.7821 78.4274 85.7821 77.8854V77.1136C85.7821 76.8947 85.6078 76.7161 85.389 76.7107L81.3274 76.6114Z" fill="#EAB054"/>
<path opacity="0.5" d="M74.0187 69.5698C73.9792 69.5479 70.0307 67.3807 67.4121 66.167C64.8195 64.9655 61.9254 65.0932 61.8009 65.0993C61.4683 65.0916 54.5444 64.9413 52.4155 65.6053C50.2713 66.2739 47.4783 69.3202 47.3607 69.4498L47.3281 69.4854L48.0791 73.0113L48.1596 73.0067C50.3437 72.8832 52.0158 73.4648 52.9941 74.6885C53.734 75.6136 53.8252 76.5904 53.8259 76.6L53.8332 76.6839L61.7082 76.8864V76.8868L61.799 76.8887L61.8959 76.8914V76.8906L72.8684 77.1045L72.8699 77.0102C72.9247 73.4426 74.052 69.717 74.0635 69.6798L74.0858 69.6066L74.0187 69.5698ZM54.003 76.4999C53.965 76.2354 53.7991 75.3981 53.147 74.5789C52.4442 73.6956 51.0215 72.6777 48.229 72.8146L47.5316 69.541C47.855 69.1933 50.497 66.4004 52.4711 65.7848C54.4463 65.1687 60.8617 65.2695 61.7074 65.2856V76.6981L54.003 76.4999ZM72.6837 76.9128L61.8959 76.7024V65.2841C62.4036 65.2695 64.9946 65.2542 67.3331 66.338C69.759 67.462 73.3317 69.4084 73.862 69.6986C73.7045 70.2361 72.7512 73.625 72.6837 76.9128Z" fill="#FEB546"/>
<path opacity="0.5" d="M42.0156 75.9658C42.1746 76.3664 42.5153 76.6812 42.9509 76.7966L45.2255 77.3977C45.4105 77.4295 45.583 77.298 45.6033 77.1109C45.6194 76.9622 45.6435 76.8158 45.6741 76.6724L42.0156 75.9658Z" fill="#FEB546"/>
<path opacity="0.5" d="M81.075 77.7236C81.0708 77.8183 81.0635 77.9126 81.0536 78.0062C81.0034 78.4651 81.3586 78.8672 81.8199 78.8672H84.8006C85.3424 78.8672 85.7819 78.4275 85.7819 77.8854V77.7236H81.075Z" fill="#FEB546"/>
<path d="M73.3684 77.7237C73.3676 77.5201 73.3822 77.32 73.4109 77.1237C73.445 76.8883 73.2695 76.6748 73.0319 76.669L53.6025 76.1944C53.3906 76.1894 53.2377 76.3915 53.2955 76.5958C53.3963 76.952 53.4503 77.3269 53.45 77.7137C53.45 77.9702 53.4262 78.2209 53.3814 78.4644C53.3346 78.7185 53.5262 78.9539 53.7845 78.9539H72.7978C73.1706 78.9539 73.4527 78.6238 73.404 78.2539C73.381 78.0802 73.3691 77.9035 73.3684 77.7237Z" fill="#EAB054"/>
<path opacity="0.5" d="M73.3675 77.7236C73.3675 77.7201 73.3675 77.7171 73.3675 77.7136H53.4487C53.4487 77.9701 53.4249 78.2208 53.3801 78.4643C53.3333 78.7184 53.5249 78.9538 53.7832 78.9538H72.7965C73.1694 78.9538 73.4514 78.6237 73.4027 78.2538C73.3801 78.0801 73.3682 77.9034 73.3675 77.7236Z" fill="#FEB546"/>
<path d="M49.6586 69.9028L60.3962 70.0044C60.3962 70.0044 61.0533 69.9867 61.143 69.368C61.2323 68.7492 61.225 66.099 61.225 66.099C61.225 66.099 61.1472 65.5669 60.6376 65.56C60.328 65.5557 57.7339 65.3702 55.2107 65.6777C53.1523 65.9284 51.2483 66.8692 49.8049 68.3137L49.0428 69.0766C49.0424 69.077 48.5282 69.892 49.6586 69.9028Z" fill="#EAFCFC"/>
<path d="M62.4199 66.4352V69.2139C62.4199 69.575 62.6966 69.8714 63.0468 69.8855L71.4842 70.2248C71.6781 70.2325 71.8678 70.1451 71.9785 69.9814C72.1299 69.7579 72.1475 69.3906 71.3915 68.898C70.0768 68.0415 66.7317 66.1887 65.4941 66.0093C64.7063 65.895 63.676 65.8456 63.0307 65.8245C62.6966 65.8141 62.4199 66.0906 62.4199 66.4352Z" fill="#EAFCFC"/>
<path d="M51.2505 68.6067C51.2505 68.6067 58.2472 67.8097 58.397 67.9477C58.5469 68.0857 59.5193 70.3625 59.696 70.9848L51.4551 70.9069L50.875 70.0313L51.2505 68.6067Z" fill="#B75742"/>
<path d="M66.084 69.2324C66.084 69.2324 66.7277 69.9946 66.9105 70.8177L66.7078 71.147L66.3012 70.7161L66.084 69.2324Z" fill="#263D60"/>
<path d="M66.7713 67.2326C66.6479 66.428 65.9206 65.8491 65.16 66.2397C64.9891 66.3275 64.7573 66.5058 64.6393 66.6576C64.3197 67.0682 64.2381 67.575 63.9082 67.9733C64.0293 68.0653 64.176 68.1619 64.3504 68.2547L64.5558 67.9806L64.4849 68.3229C64.9956 68.5675 65.7168 68.7696 66.7031 68.7638C66.8272 68.2045 66.8368 67.662 66.7713 67.2326Z" fill="#1A1A1A"/>
<path d="M65.065 69.0031C65.065 69.0031 64.3335 68.9567 64.0439 69.2719C63.7546 69.587 64.6861 72.0808 64.7386 72.4818C64.7911 72.8828 64.3067 73.6829 64.3067 73.6829C64.3067 73.6829 66.3203 74.6256 66.8115 74.3009C66.8115 74.3009 66.7326 71.0856 66.6801 70.7992C66.6276 70.5125 66.1889 69.3474 66.0835 69.2328C65.9785 69.1178 65.065 69.0031 65.065 69.0031Z" fill="#355389"/>
<path d="M65.3074 68.0266C65.3074 68.0266 65.3036 68.0481 65.2967 68.0849C65.2641 68.2605 65.1384 68.8436 65.0538 69.0038C64.9511 69.1974 65.4047 69.8154 65.8416 69.7399C65.9715 69.7173 65.7316 69.1721 65.7431 69.1146C65.7653 69.0042 65.7952 68.8531 65.8259 68.6986C65.8431 68.6112 65.8607 68.5231 65.8772 68.4399C65.9239 68.2037 65.9619 68.0105 65.9619 68.0105L65.3074 68.0266Z" fill="#F7A491"/>
<path d="M51.3023 68.7413C51.2954 68.6933 51.277 68.6481 51.2506 68.6067L50.2106 69.6475C50.2106 69.6475 49.4286 70.8877 51.1483 70.9038L51.6215 70.9084L51.3023 68.7413Z" fill="#B75742"/>
<path opacity="0.3" d="M65.2969 68.0845C65.3038 68.0477 65.3076 68.0263 65.3076 68.0263L65.9621 68.0098C65.9621 68.0098 65.9241 68.203 65.8774 68.4391C65.8609 68.522 65.8437 68.6097 65.8264 68.6964C65.7253 68.6814 65.6199 68.6324 65.5141 68.54C65.3988 68.4391 65.3233 68.318 65.2773 68.1884C65.285 68.1474 65.2919 68.1117 65.2969 68.0845Z" fill="#F47458"/>
<path d="M65.7483 66.5403C65.7483 66.5403 65.4398 66.5047 65.2467 66.7546C65.0536 67.0046 64.8451 67.7771 65.3253 68.1969C65.8054 68.617 66.2801 68.1413 66.3502 67.6375C66.4204 67.1334 66.4476 66.5223 65.7483 66.5403Z" fill="#F7A491"/>
<path d="M66.4937 67.6302C66.4362 67.7414 66.34 67.8031 66.2787 67.7678C66.2174 67.7326 66.214 67.6137 66.2715 67.5025C66.3289 67.3914 66.4251 67.3296 66.4864 67.3649C66.5477 67.3998 66.5512 67.5186 66.4937 67.6302Z" fill="#F7A491"/>
<path d="M65.7841 66.4578C65.7841 66.4578 65.3722 67.1923 65.0775 67.2264C64.7828 67.2606 64.7441 67.6508 64.7441 67.6508C64.7441 67.6508 64.8495 66.7514 65.1415 66.5778C65.4335 66.4041 65.7841 66.4578 65.7841 66.4578Z" fill="#1A1A1A"/>
<path d="M65.1542 67.411C65.1784 67.5414 65.1301 67.661 65.0466 67.6782C64.963 67.6955 64.8761 67.6035 64.8519 67.4731C64.8278 67.3428 64.8761 67.2232 64.9596 67.2059C65.0431 67.1887 65.1301 67.2807 65.1542 67.411Z" fill="#F7A491"/>
<path d="M64.1168 72.5704C64.1153 72.5635 64.3923 71.385 64.5046 71.1243C64.6165 70.8636 65.0521 69.6533 65.0521 69.6533L64.4885 69.5303C64.4885 69.5303 64.1249 70.4772 63.9593 70.9054C63.7938 71.3336 63.8643 72.123 63.857 72.3457C63.857 72.3488 63.8329 72.5344 63.8325 72.5374C63.8268 72.562 63.8218 72.5827 63.8191 72.5865C63.8122 72.5972 63.793 72.672 63.7923 72.6785C63.7915 72.685 63.775 72.7103 63.7681 72.7211C63.7612 72.7318 63.7459 72.8832 63.7429 72.9078C63.7394 72.9323 63.7505 72.9875 63.7505 72.9875L63.7448 73.0891C63.7405 73.1635 63.8176 73.1439 63.8176 73.1439C63.8157 73.1792 63.8279 73.1976 63.8478 73.2041C63.8678 73.2106 63.8908 73.2049 63.8946 73.2064C63.8984 73.2079 63.9 73.2191 63.9 73.2191C63.898 73.2413 63.9229 73.2585 63.9394 73.2616C63.9555 73.2647 63.9846 73.2539 63.9927 73.2444C64.0007 73.2348 64.0065 73.2359 64.0065 73.2359C64.0229 73.2501 64.0858 73.2493 64.1003 73.229C64.1149 73.2087 64.1279 73.1017 64.1348 73.0922C64.1413 73.0826 64.1555 73.0661 64.1574 73.0508C64.1594 73.0354 64.2111 72.9258 64.2141 72.9035C64.2172 72.8813 64.1854 72.8077 64.1781 72.7636C64.1712 72.7195 64.1279 72.6505 64.1176 72.631C64.1126 72.6237 64.1138 72.5984 64.1168 72.5704Z" fill="#F48C7F"/>
<path d="M65.9791 67.8817L65.5059 67.8572C65.5059 67.8572 65.5074 68.0377 65.7155 68.0546C65.9683 68.0749 65.9791 67.8817 65.9791 67.8817Z" fill="white"/>
<path d="M63.3861 68.2434L63.2148 69.377C63.2148 69.377 63.8406 70.7269 64.2142 70.6099C64.5276 70.5118 64.3349 69.3172 64.3349 69.3172C64.3349 69.3172 64.164 68.6758 64.2153 68.3549C64.2663 68.0337 63.3861 68.2434 63.3861 68.2434Z" fill="#F7A491"/>
<path d="M64.216 68.3548C64.2674 68.0339 63.3872 68.2432 63.3872 68.2432L63.373 68.3372C63.3987 68.4 63.4301 68.4537 63.4685 68.4951C63.665 68.7075 63.9723 68.8351 64.2379 68.8447C64.2114 68.6718 64.1953 68.4867 64.216 68.3548Z" fill="#F47458"/>
<path d="M63.2438 66.6391C63.2189 66.6299 63.0446 67.9302 63.3756 68.2879C63.7067 68.6456 64.352 68.7629 64.5834 68.4811C64.8394 68.1695 64.8267 66.7721 64.3117 66.404C63.7971 66.036 63.2438 66.6391 63.2438 66.6391Z" fill="#F7A491"/>
<path d="M64.1138 65.7089C63.7157 65.7901 63.4582 66.0343 63.3636 66.1386C63.1827 66.1601 62.9371 66.2601 62.6835 66.6819C62.3716 67.2002 62.6019 67.7745 62.9651 68.0562C63.328 68.338 63.323 68.6635 63.323 68.6635L63.3805 68.4952C63.4226 68.3675 63.4402 68.2326 63.4261 68.0988C63.4176 68.0187 63.4004 67.9316 63.3674 67.8603C63.2801 67.6721 63.5552 67.5471 63.6322 67.3907C63.6916 67.2703 63.6943 66.9943 63.7878 66.795L63.8993 66.6427C63.8993 66.6427 64.1568 66.4415 64.4089 66.4982C64.6606 66.555 64.6242 65.6042 64.1138 65.7089Z" fill="#13375B"/>
<path d="M63.614 67.6215C63.6166 67.7802 63.5446 67.9102 63.4534 67.9117C63.3622 67.9133 63.286 67.786 63.2833 67.6273C63.2806 67.4685 63.3526 67.3386 63.4438 67.337C63.5354 67.3355 63.6113 67.4628 63.614 67.6215Z" fill="#F7A491"/>
<path d="M64.1523 67.9881L64.6516 67.962C64.6516 67.962 64.6501 68.153 64.4309 68.1706C64.1631 68.1928 64.1523 67.9881 64.1523 67.9881Z" fill="white"/>
<path d="M63.0737 69.3316C63.1193 69.2461 63.2048 69.1886 63.3017 69.1798C63.7213 69.1422 64.8739 69.1414 65.462 70.1608C65.5548 70.3214 65.6214 70.4959 65.6693 70.6753L65.7931 71.1859L62.7599 71.0874L62.7649 70.7504C62.7343 70.2578 62.8412 69.7667 63.0737 69.3316Z" fill="#3C8F7C"/>
<path d="M70.279 71.3723L70.7197 69.5831C70.7492 69.4631 70.676 69.342 70.5561 69.3124C70.4361 69.2829 70.3151 69.3562 70.2859 69.4761L69.8242 71.3516L70.279 71.3723Z" fill="#1A1A1A"/>
<path d="M69.1418 71.3205C69.2663 71.2427 69.3674 71.1787 69.4356 71.1373C69.4406 71.1342 69.7583 70.9816 69.7633 70.9789C69.8081 70.9624 69.846 70.9498 69.8545 70.9494C69.8786 70.949 70.0165 70.9026 70.0277 70.8973C70.0388 70.8919 70.0955 70.8923 70.1196 70.8915C70.1438 70.8907 70.3986 70.7593 70.4403 70.7393C70.4825 70.7194 70.5583 70.6454 70.5583 70.6454L70.7246 70.5503C70.8469 70.4805 70.7361 70.3786 70.7361 70.3786C70.7936 70.3452 70.8101 70.3069 70.8001 70.2689C70.7902 70.231 70.7572 70.1999 70.7557 70.1922C70.7541 70.185 70.7702 70.1712 70.7702 70.1712C70.8078 70.1516 70.8089 70.0937 70.7971 70.065C70.7852 70.0358 70.7384 70.0013 70.7147 69.9983C70.6909 69.9952 70.6875 69.9848 70.6875 69.9848C70.6928 69.9446 70.6269 69.8453 70.5798 69.8434C70.5327 69.8415 70.3503 69.9304 70.3281 69.93C70.3062 69.9296 70.2656 69.9243 70.2392 69.9369C70.2127 69.9496 69.9863 69.9806 69.9487 69.9986C69.9112 70.0163 69.8273 70.1428 69.7648 70.1995C69.7023 70.2563 69.638 70.3951 69.6177 70.4322C69.6096 70.4468 69.5686 70.471 69.5215 70.4951C69.5142 70.5028 68.1313 71.0027 67.3125 71.2469L69.1418 71.3205Z" fill="#F7A491"/>
<path d="M64.8293 71.147C64.7435 70.6322 64.6381 70.0912 64.5247 69.8413C64.276 69.2935 63.4369 68.9672 63.0253 69.3076C62.8058 69.4894 62.9004 70.3542 63.0874 71.101L64.8293 71.147Z" fill="#50BFA5"/>
<path d="M52.638 68.1671C52.638 68.1671 51.6104 68.1418 51.2613 68.373C50.9122 68.6041 50.9548 70.9036 50.9548 70.9036L51.2939 70.968C51.2939 70.968 51.4169 72.5502 51.6793 72.633C51.9418 72.7154 53.6676 72.186 54.0263 71.7405C54.3849 71.295 53.2668 68.0149 53.2668 68.0149L52.638 68.1671Z" fill="#3C8F7C"/>
<path d="M54.4674 66.3433C54.5571 66.0654 54.6169 65.2266 54.6364 64.9414C54.6226 64.9207 54.5475 64.7984 54.5556 64.5595C54.5613 64.3908 54.4433 64.1114 54.5514 64.1302C54.6594 64.1489 54.6652 64.4418 54.7299 64.3916C54.7947 64.341 54.8246 63.728 54.9227 63.7452C55.0207 63.7625 54.9541 64.3399 55.0123 64.2946C55.0706 64.2494 55.0729 63.7169 55.2116 63.741C55.3503 63.7652 55.1503 64.3675 55.2246 64.3805C55.2989 64.3935 55.415 64.0105 55.5265 64.0301C55.638 64.0496 55.343 64.5453 55.3775 64.5189C55.4116 64.4924 55.6491 64.2896 55.6886 64.3353C55.7334 64.3866 55.1832 64.9663 55.1817 65.1189C55.2273 65.5053 55.3185 66.2053 55.1939 66.6454C55.0414 67.1837 54.651 68.3798 54.651 68.3798L53.8184 68.1816C53.8184 68.1816 54.3613 66.6727 54.4674 66.3433Z" fill="#F7A491"/>
<path d="M54.8223 64.5051C54.8633 64.5235 54.8974 64.5519 54.9269 64.5841C54.9299 64.5906 55.0342 64.6888 55.0073 64.8482C54.9889 64.7509 54.9683 64.6424 54.8223 64.5051Z" fill="#F48C7F"/>
<path d="M49.4982 68.6172C49.4982 68.6172 49.5196 68.483 49.4081 68.276C49.3365 68.1433 49.315 67.8727 49.2403 67.9309C49.1656 67.9892 49.2779 68.2257 49.2085 68.2112C49.1392 68.1966 48.8725 67.7178 48.8046 67.7707C48.7368 67.8236 49.0173 68.2591 48.9552 68.2461C48.8932 68.233 48.679 67.8079 48.5832 67.8826C48.4874 67.9574 48.879 68.3595 48.8276 68.3994C48.7763 68.4393 48.5357 68.1794 48.4586 68.2395C48.3816 68.2997 48.8031 68.5788 48.7667 68.5712C48.7303 68.5635 48.469 68.496 48.4567 68.5482C48.4433 68.6068 48.9889 68.7789 49.051 68.9005C49.1131 69.0216 50.0515 70.2323 50.3197 70.2331C50.5879 70.2338 51.7919 69.4184 51.8792 69.1535C51.9666 68.8886 51.8578 68.6072 51.6823 68.5708C51.5068 68.534 50.3845 69.3425 50.3293 69.331C50.2741 69.3195 49.4982 68.6172 49.4982 68.6172Z" fill="#F7A491"/>
<path d="M49.2185 68.3238C49.192 68.3602 49.1763 68.4016 49.1664 68.4441C49.1667 68.4514 49.125 68.5879 49.2269 68.7136C49.1947 68.6197 49.1591 68.5154 49.2185 68.3238Z" fill="#F48C7F"/>
<path d="M52.0324 70.2886C52.0324 70.2886 53.1134 71.1485 53.2329 71.3241C53.3222 71.4552 53.0252 72.9342 53.0252 72.9342C53.0252 72.9342 52.598 72.9477 52.4022 72.7955C52.4022 72.7955 52.5191 71.7734 52.4677 71.7335C52.4164 71.6937 51.2305 71.1658 51.2305 71.1658L51.3056 70.5593L52.0324 70.2886Z" fill="#B75742"/>
<path d="M54.1082 67.1941C54.1082 67.1941 54.2952 67.229 54.9347 67.9275L54.1913 69.4403L53.5039 68.1824L54.1082 67.1941Z" fill="#9BC1F9"/>
<path d="M52.9008 68.2609C52.9008 68.2609 53.3893 68.1516 53.5602 68.068C53.7315 67.9841 55.3148 71.7162 54.9155 71.8481C54.0817 72.1233 51.9172 72.8506 51.9172 72.8506C51.9172 72.8506 51.8547 72.6344 51.9333 72.2406C52.0693 71.559 52.0245 70.0378 51.9957 69.7717C51.9789 69.6153 51.0554 70.0677 51.0554 70.0677L50.6914 68.8885C50.6914 68.8885 51.7455 68.5292 52.0996 68.4154C52.1984 68.3836 52.9008 68.2609 52.9008 68.2609Z" fill="#9BC1F9"/>
<path d="M54.708 70.5717C54.5102 69.956 53.2009 68.1856 53.1895 68.1688L53.4033 68.0227C53.4512 68.0929 54.5179 69.5938 54.7267 70.2451L54.708 70.5717Z" fill="#3C8F7C"/>
<path d="M51.8681 71.7145L51.7324 71.5423C51.7416 71.5351 52.6528 70.8047 52.6773 69.9958C52.7022 69.1781 52.0436 68.3926 52.037 68.3849L52.2037 68.2427C52.2332 68.2772 52.9237 69.0991 52.8965 70.0023C52.8685 70.914 51.9091 71.6823 51.8681 71.7145Z" fill="#3C8F7C"/>
<path d="M52.6665 65.765C52.6665 65.765 53.0531 65.4778 53.4194 65.944C53.7114 66.3159 53.6731 66.1989 53.8172 66.3837C53.9616 66.5689 54.1793 66.5846 54.2122 66.8921C54.2452 67.1995 54.1068 67.2628 54.1068 67.2628C54.1068 67.2628 54.2624 67.4882 54.1455 67.7497C54.0287 68.0111 53.6934 68.2615 53.3907 68.2596C53.3907 68.2596 52.9677 68.5548 52.504 68.4865C52.0408 68.4187 52.1979 68.4018 52.0132 68.4213C51.8289 68.4413 51.3028 68.2419 51.3449 67.8639C51.3449 67.8639 51.0024 67.5354 51.2652 67.2087C51.5285 66.8821 51.671 66.6544 51.799 66.2392C51.927 65.824 52.4512 65.6914 52.6665 65.765Z" fill="#1A1A1A"/>
<path d="M53.1836 67.8887C53.1836 67.8887 53.2258 68.435 53.2825 68.4806C53.3392 68.5262 53.4197 68.6033 53.3584 68.7413C53.2971 68.8793 52.9622 68.8314 52.802 68.7735C52.6484 68.7179 52.5399 68.5953 52.5399 68.5953L52.5234 67.725L53.1836 67.8887Z" fill="#F7A491"/>
<path d="M52.9913 68.1379C52.8825 68.1126 52.692 68.0612 52.5257 67.8469L52.5234 67.725L53.1836 67.8891C53.1836 67.8891 53.194 68.0225 53.2112 68.1628C53.122 68.1682 53.0434 68.1498 52.9913 68.1379Z" fill="#F48C7F"/>
<path d="M52.2577 67.2475C52.2577 67.2475 52.2079 66.9293 52.0182 67.0125C51.8286 67.0957 52.0301 67.5626 52.1914 67.5293C52.3524 67.4955 52.2577 67.2475 52.2577 67.2475Z" fill="#F7A491"/>
<path d="M52.8504 66.0093C52.8504 66.0093 53.157 65.9694 53.3401 66.1918C53.5229 66.4141 53.7674 67.0793 53.5585 67.5788C53.3497 68.0784 53.0056 67.9978 52.8638 67.9649C52.7221 67.9315 52.4408 67.8549 52.2569 67.4285C52.0726 67.0022 52.0649 66.0005 52.8504 66.0093Z" fill="#F7A491"/>
<path d="M59.1212 71.0999L59.6864 73.8L58.7112 73.7053L58.2422 71.236L59.1212 71.0999Z" fill="#F7A491"/>
<path d="M59.2903 71.1794L58.2439 71.2361C58.2439 71.2361 58.1657 70.5135 58.1481 70.1677C58.1263 69.7483 58.1343 69.2058 58.1857 69.215C58.3293 69.2403 58.5248 69.3089 58.647 69.4596C59.0689 69.981 59.2903 71.1794 59.2903 71.1794Z" fill="#5184CE"/>
<path d="M58.601 70.0727C58.6263 70.1996 59.2888 73.7285 59.2888 73.7285C57.7197 74.5892 56.5223 73.8546 56.5223 73.8546C56.5223 73.8546 56.5821 71.4823 56.5016 71.1534C56.4484 70.9356 56.2556 69.5018 56.3959 69.4535C56.576 69.3914 56.848 69.3006 57.0752 69.2649C57.2691 69.2346 58.0259 69.1836 58.1638 69.2224C58.1638 69.2224 58.4957 69.539 58.601 70.0727Z" fill="#EAFCFC"/>
<path d="M58.0379 66.7059C58.0379 66.7059 58.6724 66.6963 58.6199 67.2219C58.6199 67.2219 59.092 67.4055 58.7774 67.8314C58.7774 67.8314 59.1131 68.2892 58.5287 68.7289C58.5287 68.7289 58.3735 69.3438 57.7118 69.0498C57.7118 69.0498 57.516 69.1959 57.2451 69.0003C56.9742 68.8048 56.9389 68.689 56.9389 68.689C56.9389 68.689 56.34 68.5756 56.4224 68.0243C56.4224 68.0243 56.1078 67.7559 56.583 67.4189C56.583 67.4189 56.5742 66.6629 57.2164 66.7649C57.216 66.7653 57.5911 66.1883 58.0379 66.7059Z" fill="#13375B"/>
<path d="M57.0439 67.9437C57.0266 68.0779 56.9392 68.1772 56.8488 68.1657C56.7584 68.1542 56.6986 68.0361 56.7159 67.9019C56.7331 67.7677 56.8205 67.6684 56.9109 67.6799C57.0017 67.6914 57.0611 67.8095 57.0439 67.9437Z" fill="#F7A491"/>
<path d="M58.5331 68.3537C58.4775 68.4768 58.3649 68.5461 58.2817 68.5086C58.1986 68.471 58.176 68.3407 58.2319 68.2172C58.2875 68.0942 58.4001 68.0248 58.4833 68.0623C58.566 68.0999 58.5887 68.2302 58.5331 68.3537Z" fill="#F7A491"/>
<path d="M57.7698 68.7623C57.7691 68.7719 57.8231 69.1173 57.8514 69.2998C57.8622 69.368 57.8231 69.434 57.7587 69.4577C57.5859 69.5218 57.2495 69.6038 57.0376 69.3811C57.0184 69.3608 57.0092 69.3328 57.0123 69.3048L57.1 68.4966L57.7698 68.7623Z" fill="#F7A491"/>
<path d="M57.8217 69.1103C57.6381 69.1862 57.1082 69.1202 57.0684 68.7863L57.0998 68.4969L57.7696 68.7622C57.7692 68.7668 57.8056 69.0049 57.8217 69.1103Z" fill="#F48C7F"/>
<path d="M57.9399 67.116C57.9399 67.116 57.6606 67.0555 57.3939 67.2211C57.1272 67.3867 56.6942 68.0388 57.0563 68.605C57.4184 69.1717 58.033 68.8941 58.2499 68.4456C58.466 67.997 58.5583 67.3288 57.9399 67.116Z" fill="#F7A491"/>
<path d="M57.7682 68.5181L57.3965 68.4966C57.3965 68.4966 57.3969 68.6385 57.5601 68.6523C57.7593 68.6695 57.7682 68.5181 57.7682 68.5181Z" fill="white"/>
<path d="M58.416 67.4338C58.416 67.4338 58.1455 67.2889 57.944 67.3077C57.7424 67.3269 57.0857 67.8045 56.9899 67.7244C56.8945 67.6443 57.0175 67.2218 57.0937 67.1605C57.17 67.0991 57.4742 66.9147 57.5002 66.9113C57.5263 66.9078 57.8026 66.9128 57.8497 66.9251C57.8972 66.9374 58.2386 67.1003 58.2386 67.1003L58.416 67.4338Z" fill="#13375B"/>
<path d="M54.486 74.0487C54.4917 74.0326 54.5055 74.0318 54.5201 74.0311C54.6588 74.0226 54.7967 74.0119 54.9339 73.987C54.9569 73.9828 54.9791 73.977 54.9998 73.9678C55.0377 73.9513 55.0753 73.9506 55.1144 73.9601C55.1354 73.9651 55.1569 73.9655 55.1783 73.9647C55.2481 73.9621 55.4446 73.8881 55.5462 73.8674C55.5696 73.8624 55.5872 73.8444 55.5926 73.821C55.6807 73.42 55.8681 72.521 55.8868 72.2269C55.9106 71.8505 56.1167 70.1506 56.1167 70.1506L56.8156 70.322C56.8156 70.322 56.5696 71.5798 56.5099 72.1878C56.4635 72.6575 56.0278 73.6642 55.8903 73.954C55.8255 74.1687 55.665 74.1794 55.6278 74.1852C55.6067 74.1883 55.5872 74.1998 55.5738 74.2162C55.5493 74.2465 55.5213 74.273 55.4887 74.2952C55.4646 74.3113 55.4462 74.3324 55.4309 74.3566C55.4029 74.4006 55.378 74.4463 55.3531 74.4923C55.3366 74.5226 55.319 74.5329 55.2929 74.5264C55.2653 74.5199 55.2515 74.4999 55.2508 74.4662C55.25 74.4167 55.2646 74.3715 55.2879 74.3282C55.3102 74.2879 55.3075 74.2649 55.2791 74.2293C55.263 74.209 55.2462 74.189 55.2251 74.1729C55.2036 74.1568 55.1814 74.1445 55.1534 74.1491C55.104 74.1633 55.0542 74.1748 55.0032 74.1821L54.9615 74.1921C54.9599 74.1925 54.9389 74.1978 54.9389 74.1978C54.9354 74.199 54.8618 74.2093 54.8366 74.2101C54.8162 74.2109 54.7833 74.2132 54.7557 74.2155C54.7304 74.2174 54.6768 74.2059 54.6749 74.2059C54.6503 74.2063 54.6281 74.1978 54.6093 74.1821C54.6017 74.1756 54.594 74.1683 54.5975 74.1568C54.6005 74.1461 54.609 74.1415 54.6193 74.1392C54.6358 74.1357 54.7216 74.1223 54.7205 74.1189C54.6948 74.1196 54.6147 74.1204 54.5894 74.1204C54.5549 74.1204 54.5247 74.1093 54.5001 74.0844C54.4913 74.0744 54.4802 74.0648 54.486 74.0487Z" fill="#F7A491"/>
<path d="M55.6504 71.1734L56.6631 71.6633C56.6631 71.6633 56.8221 70.9192 56.9409 70.4591C57.0428 70.0635 56.5382 69.36 56.3704 69.4562C55.9941 69.6717 55.6504 71.1734 55.6504 71.1734Z" fill="#5184CE"/>
<path d="M62.4922 69.8628L71.4967 70.2462C71.4967 70.2462 70.7112 72.8753 70.6921 73.0064C70.6729 73.1375 67.7179 74.7508 66.9753 74.7316C66.2327 74.7124 64.5012 74.0906 64.1283 73.9809C63.7559 73.8713 62.788 73.1157 62.8459 72.651C62.9041 72.186 62.4922 69.8628 62.4922 69.8628Z" fill="#F7CC7F"/>
<path d="M65.0845 71.1963H62.6686C62.6088 71.1963 62.5605 71.148 62.5605 71.0882V70.8793C62.5605 70.8195 62.6088 70.7711 62.6686 70.7711H65.0845C65.1443 70.7711 65.1925 70.8195 65.1925 70.8793V71.0882C65.1922 71.1476 65.1439 71.1963 65.0845 71.1963Z" fill="#EAB054"/>
<path d="M66.1289 66.1765L67.3489 66.6787L67.2792 66.4276L66.8244 66.1765C66.8244 66.1765 66.4519 66.104 66.4155 66.0845C66.3787 66.0653 66.1289 66.1765 66.1289 66.1765Z" fill="#F7CC7F"/>
<path opacity="0.6" d="M71.9448 69.392L62.4199 68.5762V69.2137C62.4199 69.5748 62.6966 69.8712 63.0468 69.8854L71.4842 70.2247C71.6781 70.2323 71.8678 70.1449 71.9785 69.9812C72.0743 69.8409 72.1161 69.6427 71.9448 69.392Z" fill="#C5DDF9"/>
<path opacity="0.7" d="M62.4199 68.576V68.4844L71.9107 69.345L71.9448 69.3918L62.4199 68.576Z" fill="#C5DDF9"/>
<path opacity="0.2" d="M64.6133 69.9485L65.4812 69.9834L66.1939 68.8992L65.3505 68.8271L64.6133 69.9485Z" fill="white"/>
<path opacity="0.2" d="M66.1522 70.0106L66.8461 68.9552L66.5254 68.928L65.8223 69.9972L66.1522 70.0106Z" fill="white"/>
<path d="M49.5166 69.8967L60.3964 70.0045L60.4937 73.4544C60.4937 73.4544 59.2227 75.3042 59.0695 75.2846C58.9162 75.2654 55.6665 74.7421 55.3749 74.7617C55.0833 74.7812 52.536 73.5303 52.4157 73.5552C52.2954 73.5801 51.5018 73.1538 51.5018 73.1538L50.2083 72.2395L48.9258 70.9188L49.5166 69.8967Z" fill="#F7CC7F"/>
<path d="M51.7193 70.9835H49.3034C49.2436 70.9835 49.1953 70.9352 49.1953 70.8754V70.6665C49.1953 70.6067 49.2436 70.5583 49.3034 70.5583H51.7193C51.779 70.5583 51.8273 70.6067 51.8273 70.6665V70.8754C51.8273 70.9352 51.7787 70.9835 51.7193 70.9835Z" fill="#EAB054"/>
<path d="M53.3298 67.3945L52.9531 67.467C52.9531 67.467 52.9891 67.6085 53.1558 67.5812C53.3593 67.5486 53.3298 67.3945 53.3298 67.3945Z" fill="white"/>
<path d="M52.1629 67.0337C52.1629 67.0337 53.0128 66.6442 53.0971 66.0339C53.1813 65.4235 52.3985 66.0066 52.3985 66.0066L52.082 66.3107L52.1629 67.0337Z" fill="#1A1A1A"/>
<path d="M62.7294 69.7855C62.7294 69.7855 62.8877 69.8947 63.0877 69.8871C63.0877 69.8871 62.8218 69.9684 62.8137 69.9618C62.806 69.9553 62.6719 69.8476 62.6738 69.8453C62.6758 69.8434 62.7294 69.7855 62.7294 69.7855Z" fill="#F7CC7F"/>
<path d="M63.5508 65.8451L64.6145 65.9126C64.6145 65.9126 64.4401 65.6243 64.3666 65.6243C64.293 65.6243 63.806 65.6243 63.806 65.6243L63.5508 65.8451Z" fill="#F7CC7F"/>
</svg>
