<svg width="32" height="32" viewBox="0 0 32 32" fill="none" xmlns="http://www.w3.org/2000/svg">
<circle cx="16" cy="16" r="15.8" fill="#F7F7F7" stroke="#B6B6B6" stroke-width="0.4"/>
<path d="M16 24.0625C11.5525 24.0625 7.9375 20.4475 7.9375 16C7.9375 11.5525 11.5525 7.9375 16 7.9375C16.3075 7.9375 16.5625 8.1925 16.5625 8.5C16.5625 8.8075 16.3075 9.0625 16 9.0625C12.175 9.0625 9.0625 12.175 9.0625 16C9.0625 19.825 12.175 22.9375 16 22.9375C19.825 22.9375 22.9375 19.825 22.9375 16C22.9375 15.6925 23.1925 15.4375 23.5 15.4375C23.8075 15.4375 24.0625 15.6925 24.0625 16C24.0625 20.4475 20.4475 24.0625 16 24.0625Z" fill="#383A69"/>
<path d="M22.75 12.8125H19.75C19.4425 12.8125 19.1875 12.5575 19.1875 12.25V9.25C19.1875 8.9425 19.4425 8.6875 19.75 8.6875C20.0575 8.6875 20.3125 8.9425 20.3125 9.25V11.6875H22.75C23.0575 11.6875 23.3125 11.9425 23.3125 12.25C23.3125 12.5575 23.0575 12.8125 22.75 12.8125Z" fill="#383A69"/>
<path d="M19.7501 12.8125C19.6076 12.8125 19.4651 12.76 19.3526 12.6475C19.1351 12.43 19.1351 12.07 19.3526 11.8525L23.1026 8.1025C23.3201 7.885 23.6801 7.885 23.8976 8.1025C24.1151 8.32 24.1151 8.68 23.8976 8.8975L20.1476 12.6475C20.0351 12.76 19.8926 12.8125 19.7501 12.8125Z" fill="#383A69"/>
<path d="M13.9705 15.7979C14.1311 15.8081 14.2969 15.8132 14.4678 15.8132C14.6421 15.8132 14.8113 15.8013 14.9753 15.7773C15.1428 15.75 15.3018 15.7073 15.4521 15.6492C15.6025 15.5911 15.7375 15.5107 15.8572 15.4082C15.9768 15.3057 16.0742 15.1775 16.1494 15.0237C16.228 14.8665 16.2776 14.6785 16.2981 14.4597H13.75C13.7603 14.4358 13.7876 14.3862 13.832 14.311C13.8799 14.2324 13.9294 14.1504 13.9807 14.0649C14.0422 13.9658 14.1106 13.8582 14.1858 13.7419H16.1699C16.1699 13.6531 16.1272 13.5642 16.0417 13.4753C15.9563 13.3831 15.8521 13.301 15.729 13.2292C15.6094 13.1575 15.4863 13.0994 15.3599 13.0549C15.2334 13.0071 15.1292 12.9832 15.0471 12.9832H13.75C13.7637 12.9421 13.7927 12.8806 13.8372 12.7986C13.885 12.7166 13.9346 12.6362 13.9858 12.5576C14.0371 12.4756 14.0815 12.4038 14.1191 12.3423C14.1602 12.2808 14.1824 12.25 14.1858 12.25H18.4565C18.4565 12.25 18.4463 12.2688 18.4258 12.3064C18.4087 12.344 18.3848 12.3901 18.354 12.4448C18.3232 12.4961 18.2891 12.5542 18.2515 12.6191C18.2139 12.6807 18.178 12.7388 18.1438 12.7935C18.113 12.8481 18.0857 12.8943 18.0618 12.9319C18.0413 12.9661 18.031 12.9832 18.031 12.9832H16.9082C16.98 13.1062 17.0415 13.231 17.0928 13.3574C17.1475 13.4805 17.1816 13.6086 17.1953 13.7419H18.4565L18.031 14.4597H17.2415C17.2004 14.7776 17.1099 15.0493 16.9697 15.2749C16.833 15.5005 16.6638 15.6885 16.4622 15.8389C16.2639 15.9858 16.0417 16.1003 15.7957 16.1824C15.5496 16.261 15.2966 16.3157 15.0369 16.3464C15.0369 16.3499 15.042 16.3618 15.0522 16.3823C15.0659 16.3994 15.0813 16.4199 15.0984 16.4438C15.1155 16.4712 15.136 16.5002 15.1599 16.531L17.4363 19.6738V19.802H16.4622L13.9705 16.4746V15.7979Z" fill="#383A69"/>
</svg>
